<svg width="657" height="545" viewBox="0 0 657 545" fill="none" xmlns="http://www.w3.org/2000/svg">
<g filter="url(#filter0_d_4559_15784)">
<path fill-rule="evenodd" clip-rule="evenodd" d="M348.5 342C400.139 342 442 300.139 442 248.5C442 196.861 400.139 155 348.5 155C296.861 155 255 196.861 255 248.5C255 300.139 296.861 342 348.5 342Z" fill="white"/>
</g>
<path fill-rule="evenodd" clip-rule="evenodd" d="M349.5 362C411.632 362 462 311.632 462 249.5C462 187.368 411.632 137 349.5 137C287.368 137 237 187.368 237 249.5C237 311.632 287.368 362 349.5 362Z" stroke="#023986" stroke-opacity="0.3" stroke-dasharray="6"/>
<path fill-rule="evenodd" clip-rule="evenodd" d="M349 379C420.797 379 479 320.797 479 249C479 177.203 420.797 119 349 119C277.203 119 219 177.203 219 249C219 320.797 277.203 379 349 379Z" stroke="#023986" stroke-opacity="0.5" stroke-dasharray="6"/>
<path d="M420 139V64.9963C420 62.2349 422.239 59.9963 425 59.9963H534.734C537.495 59.9963 539.734 57.7577 539.734 54.9963V5.99999C539.734 3.23857 541.972 1 544.734 1H567" stroke="#023986" stroke-dasharray="6 6"/>
<path d="M281 138H209.279C206.518 138 204.279 135.761 204.279 133V59C204.279 56.2386 202.041 54 199.279 54H59" stroke="#023986" stroke-dasharray="6 6"/>
<circle cx="280.5" cy="137.5" r="4.5" fill="#023986"/>
<circle cx="419.5" cy="137.5" r="4.5" fill="#023986"/>
<path d="M218 240H76.6116C73.8502 240 71.6116 242.239 71.6116 245V279C71.6116 281.761 69.373 284 66.6116 284H0" stroke="#023986" stroke-dasharray="6 6"/>
<circle cx="218.5" cy="239.5" r="4.5" fill="#023986"/>
<circle cx="480.5" cy="246.5" r="4.5" fill="#023986"/>
<circle cx="444.5" cy="337.5" r="4.5" fill="#023986"/>
<circle cx="289.5" cy="363.5" r="4.5" fill="#023986"/>
<path d="M482 246H589.095C591.856 246 594.095 243.761 594.095 241V229C594.095 226.239 596.333 224 599.095 224H657" stroke="#023986" stroke-dasharray="6 6"/>
<path d="M444 346V401.216C444 403.977 446.239 406.216 449 406.216H592C594.761 406.216 597 408.454 597 411.216V430.5" stroke="#023986" stroke-dasharray="6 6"/>
<path d="M289 364V430.538C289 433.3 286.761 435.538 284 435.538H141.702C138.94 435.538 136.702 437.777 136.702 440.538V539C136.702 541.761 134.463 544 131.702 544H72" stroke="#023986" stroke-dasharray="6 6"/>
<path d="M313 263.843V267.866C313.002 268.576 313.284 269.257 313.783 269.759C314.283 270.262 314.96 270.545 315.667 270.547H382.333C383.039 270.545 383.717 270.262 384.216 269.759C384.715 269.257 384.998 268.576 384.999 267.866V263.843H313ZM351.001 268.536H347.001C346.264 268.536 345.667 267.936 345.667 267.195C345.667 266.454 346.264 265.854 347.001 265.854H351.001C351.737 265.854 352.334 266.454 352.334 267.195C352.334 267.936 351.737 268.536 351.001 268.536Z" fill="#023986"/>
<path d="M363.666 283.258C363.665 283.398 363.608 283.533 363.508 283.631C363.408 283.729 363.273 283.783 363.133 283.78H334.866C334.726 283.783 334.591 283.729 334.491 283.631C334.391 283.533 334.334 283.398 334.333 283.258C334.333 282.332 334.698 281.443 335.347 280.788C335.997 280.132 336.879 279.762 337.8 279.758H339.626L341 273.229H357L358.373 279.759L360.199 279.758C361.12 279.762 362.002 280.132 362.652 280.788C363.301 281.444 363.666 282.332 363.666 283.258Z" fill="#023986"/>
<path d="M382.333 219.598H315.667C314.96 219.6 314.283 219.883 313.783 220.385C313.284 220.888 313.002 221.568 313 222.279V261.162H385V222.279C384.998 221.568 384.716 220.888 384.216 220.385C383.717 219.883 383.039 219.6 382.333 219.598ZM355.659 227.006C355.023 226.633 354.809 225.812 355.18 225.173C355.55 224.534 356.367 224.318 357.002 224.691L365.332 229.579C365.741 229.819 365.993 230.259 365.993 230.736C365.993 231.213 365.741 231.654 365.332 231.894L357.002 236.781C356.367 237.152 355.553 236.936 355.183 236.298C354.812 235.66 355.025 234.841 355.659 234.467L362.014 230.736L355.659 227.006ZM345.276 236.699L350.237 223.806V223.806C350.504 223.117 351.275 222.776 351.961 223.043C352.647 223.309 352.988 224.085 352.724 224.775L347.763 237.668V237.668C347.496 238.357 346.724 238.699 346.038 238.432C345.353 238.165 345.012 237.389 345.276 236.699ZM332.668 229.579L340.997 224.691H340.997C341.633 224.321 342.447 224.537 342.817 225.175C343.187 225.813 342.974 226.632 342.341 227.006L335.986 230.736L342.341 234.467C342.647 234.645 342.87 234.939 342.96 235.284C343.052 235.628 343.002 235.994 342.823 236.302C342.645 236.609 342.352 236.833 342.009 236.923C341.666 237.013 341.303 236.962 340.997 236.781L332.668 231.894C332.258 231.654 332.006 231.213 332.006 230.736C332.006 230.26 332.258 229.819 332.668 229.579ZM326.402 257.81H323.667C322.93 257.81 322.333 257.21 322.333 256.469C322.333 255.729 322.93 255.129 323.667 255.129H326.402C327.139 255.129 327.736 255.729 327.736 256.469C327.736 257.21 327.139 257.81 326.402 257.81ZM326.402 251.106H323.667C322.93 251.106 322.333 250.506 322.333 249.765C322.333 249.025 322.93 248.425 323.667 248.425H326.402C327.139 248.425 327.736 249.025 327.736 249.765C327.736 250.506 327.139 251.106 326.402 251.106ZM326.402 244.402H323.667C322.93 244.402 322.333 243.802 322.333 243.062C322.333 242.321 322.93 241.721 323.667 241.721H326.402C327.139 241.721 327.736 242.321 327.736 243.062C327.736 243.802 327.139 244.402 326.402 244.402ZM365.166 257.81H331.132C330.396 257.81 329.799 257.21 329.799 256.469C329.799 255.729 330.396 255.129 331.132 255.129H365.166C365.903 255.129 366.5 255.729 366.5 256.469C366.5 257.21 365.903 257.81 365.166 257.81ZM329.799 249.765C329.799 249.41 329.939 249.069 330.189 248.817C330.439 248.565 330.779 248.424 331.132 248.425H334.333C335.069 248.425 335.666 249.025 335.666 249.765C335.666 250.506 335.069 251.106 334.333 251.106H331.132C330.779 251.106 330.439 250.965 330.189 250.714C329.939 250.462 329.799 250.121 329.799 249.765ZM374.332 257.81H370.665C369.929 257.81 369.332 257.21 369.332 256.469C369.332 255.729 369.929 255.129 370.665 255.129H374.332C375.068 255.129 375.665 255.729 375.665 256.469C375.665 257.21 375.068 257.81 374.332 257.81ZM374.332 251.106H339.166C338.429 251.106 337.832 250.506 337.832 249.765C337.832 249.025 338.429 248.425 339.166 248.425H374.332C375.068 248.425 375.665 249.025 375.665 249.765C375.665 250.506 375.068 251.106 374.332 251.106ZM374.332 244.402H331.132C330.396 244.402 329.799 243.802 329.799 243.062C329.799 242.321 330.396 241.721 331.132 241.721H374.332C375.068 241.721 375.665 242.321 375.665 243.062C375.665 243.802 375.068 244.402 374.332 244.402Z" fill="#023986"/>
<defs>
<filter id="filter0_d_4559_15784" x="245" y="145" width="207" height="207" filterUnits="userSpaceOnUse" color-interpolation-filters="sRGB">
<feFlood flood-opacity="0" result="BackgroundImageFix"/>
<feColorMatrix in="SourceAlpha" type="matrix" values="0 0 0 0 0 0 0 0 0 0 0 0 0 0 0 0 0 0 127 0" result="hardAlpha"/>
<feOffset/>
<feGaussianBlur stdDeviation="5"/>
<feColorMatrix type="matrix" values="0 0 0 0 0.00784314 0 0 0 0 0.223529 0 0 0 0 0.52549 0 0 0 0.1 0"/>
<feBlend mode="normal" in2="BackgroundImageFix" result="effect1_dropShadow_4559_15784"/>
<feBlend mode="normal" in="SourceGraphic" in2="effect1_dropShadow_4559_15784" result="shape"/>
</filter>
</defs>
</svg>
