<svg width="293" height="840" viewBox="0 0 293 840" fill="none" xmlns="http://www.w3.org/2000/svg">
<path d="M127 424.5L1 382.439V0" stroke="#023986" stroke-dasharray="2 2"/>
<path d="M166 424L292 463.342V839.5" stroke="#023986" stroke-dasharray="2 2"/>
<path d="M127 420L28.5 372V139.5" stroke="#023986" stroke-dasharray="2 2"/>
<path d="M166 429L264 472.672V700" stroke="#023986" stroke-dasharray="2 2"/>
<path d="M129.5 415.5L67.5 370.5L67.5 278.5" stroke="#023986" stroke-dasharray="2 2"/>
<path d="M163 433L225 471.721V539" stroke="#023986" stroke-dasharray="2 2"/>
<path fill-rule="evenodd" clip-rule="evenodd" d="M147.03 396.988C163.982 396.988 177.725 410.773 177.725 427.78C177.725 444.788 163.982 458.578 147.03 458.578C130.078 458.578 116.335 444.788 116.335 427.78C116.335 410.773 130.078 396.988 147.03 396.988ZM153.494 423.554C153.28 423.321 152.983 423.183 152.667 423.169C152.352 423.155 152.044 423.266 151.81 423.479L145.274 429.49L142.344 426.106C142.137 425.866 141.843 425.719 141.528 425.697C141.213 425.675 140.901 425.78 140.663 425.988C140.424 426.196 140.278 426.49 140.256 426.807C140.234 427.123 140.338 427.435 140.545 427.675L144.277 431.988C144.382 432.108 144.51 432.205 144.652 432.275C144.795 432.344 144.951 432.385 145.109 432.393C145.132 432.398 145.154 432.4 145.177 432.399C145.475 432.399 145.762 432.286 145.982 432.084L153.421 425.241C153.536 425.135 153.629 425.007 153.695 424.865C153.761 424.723 153.799 424.569 153.806 424.413C153.813 424.256 153.788 424.1 153.735 423.952C153.681 423.805 153.599 423.67 153.494 423.554ZM162.698 433.221C162.791 433.156 162.86 433.062 162.895 432.954C162.93 432.846 162.929 432.73 162.892 432.623L161.672 428.646C161.494 428.084 161.494 427.48 161.672 426.917L162.892 422.94C162.929 422.833 162.93 422.717 162.895 422.609C162.86 422.501 162.791 422.408 162.698 422.343L159.382 419.845C158.908 419.495 158.554 419.007 158.369 418.446L157.026 414.512C156.994 414.404 156.927 414.309 156.835 414.242C156.744 414.176 156.633 414.141 156.52 414.144L152.373 414.08C151.786 414.074 151.214 413.888 150.735 413.546L147.343 411.149C147.253 411.08 147.143 411.043 147.03 411.043C146.917 411.043 146.807 411.08 146.717 411.149L143.325 413.546C142.846 413.888 142.274 414.074 141.687 414.08L137.54 414.144C137.427 414.141 137.317 414.176 137.225 414.242C137.133 414.309 137.066 414.404 137.034 414.512L135.691 418.446C135.507 419.006 135.153 419.495 134.679 419.844L131.362 422.342C131.269 422.408 131.201 422.501 131.166 422.609C131.131 422.717 131.132 422.833 131.169 422.94L132.388 426.917C132.567 427.479 132.567 428.084 132.388 428.646L131.168 432.623C131.132 432.73 131.131 432.846 131.165 432.954C131.2 433.062 131.269 433.156 131.362 433.221L134.678 435.719C135.153 436.068 135.506 436.557 135.691 437.117L137.033 441.051C137.065 441.16 137.132 441.256 137.224 441.322C137.316 441.389 137.427 441.423 137.54 441.419L141.687 441.489C142.275 441.489 142.848 441.676 143.324 442.023L146.717 444.414C146.808 444.481 146.918 444.518 147.031 444.518C147.144 444.518 147.253 444.481 147.344 444.414L150.736 442.023C151.212 441.676 151.786 441.489 152.374 441.489L156.521 441.419C156.634 441.423 156.745 441.389 156.837 441.322C156.929 441.256 156.996 441.16 157.027 441.051L158.37 437.117C158.554 436.557 158.908 436.068 159.382 435.719L162.699 433.221H162.698ZM165.169 431.918L163.95 427.942C163.913 427.838 163.913 427.725 163.95 427.621L165.169 423.645C165.351 423.067 165.349 422.447 165.162 421.871C164.976 421.295 164.614 420.792 164.129 420.432L160.813 417.934C160.721 417.872 160.654 417.779 160.624 417.672L159.281 413.738C159.09 413.164 158.724 412.665 158.236 412.309C157.748 411.953 157.161 411.758 156.558 411.753L152.411 411.688C152.301 411.69 152.194 411.655 152.107 411.587L148.713 409.196C148.222 408.844 147.633 408.655 147.03 408.655C146.426 408.655 145.838 408.844 145.346 409.196L141.954 411.587C141.867 411.655 141.759 411.69 141.649 411.688L137.503 411.753C136.899 411.758 136.312 411.953 135.824 412.309C135.336 412.664 134.97 413.164 134.778 413.738L133.436 417.672C133.406 417.779 133.339 417.872 133.247 417.934L129.931 420.432C129.445 420.792 129.084 421.295 128.898 421.871C128.711 422.447 128.708 423.067 128.89 423.645L130.11 427.621C130.147 427.725 130.147 427.838 130.11 427.942L128.89 431.918C128.708 432.496 128.711 433.116 128.898 433.692C129.084 434.268 129.445 434.771 129.931 435.132L133.247 437.63C133.339 437.691 133.406 437.784 133.436 437.891L134.778 441.825C134.969 442.4 135.334 442.901 135.822 443.257C136.311 443.613 136.899 443.806 137.503 443.81L141.649 443.874C141.759 443.875 141.865 443.91 141.954 443.975L145.346 446.369C145.838 446.721 146.426 446.91 147.03 446.91C147.633 446.91 148.222 446.721 148.713 446.369L152.106 443.975C152.194 443.91 152.301 443.875 152.41 443.874L156.557 443.81C157.161 443.806 157.748 443.613 158.237 443.257C158.726 442.901 159.091 442.4 159.281 441.825L160.624 437.891C160.654 437.784 160.72 437.692 160.812 437.63L164.129 435.132C164.614 434.771 164.975 434.268 165.162 433.692C165.348 433.116 165.351 432.496 165.169 431.918ZM147.03 437.085C148.864 437.085 150.657 436.54 152.182 435.518C153.707 434.496 154.896 433.043 155.598 431.343C156.3 429.643 156.484 427.772 156.127 425.967C155.769 424.163 154.886 422.505 153.589 421.203C152.292 419.902 150.64 419.016 148.841 418.657C147.043 418.298 145.178 418.482 143.483 419.186C141.789 419.89 140.341 421.083 139.322 422.613C138.303 424.143 137.759 425.941 137.759 427.782C137.762 430.248 138.739 432.613 140.477 434.357C142.215 436.101 144.572 437.082 147.03 437.085ZM147.03 416.087C144.725 416.086 142.471 416.772 140.554 418.057C138.637 419.342 137.142 421.168 136.26 423.305C135.377 425.442 135.146 427.793 135.596 430.062C136.045 432.331 137.155 434.415 138.785 436.051C140.416 437.686 142.492 438.8 144.754 439.252C147.015 439.703 149.358 439.472 151.488 438.586C153.618 437.701 155.439 436.202 156.72 434.279C158.001 432.356 158.684 430.095 158.684 427.782C158.681 424.681 157.452 421.709 155.267 419.516C153.083 417.324 150.12 416.091 147.03 416.087Z" fill="#023986"/>
<g filter="url(#filter0_dd_1969_10436)">
<circle cx="147" cy="427" r="53.5" stroke="#D9DEE8"/>
</g>
<defs>
<filter id="filter0_dd_1969_10436" x="73" y="363" width="148" height="148" filterUnits="userSpaceOnUse" color-interpolation-filters="sRGB">
<feFlood flood-opacity="0" result="BackgroundImageFix"/>
<feColorMatrix in="SourceAlpha" type="matrix" values="0 0 0 0 0 0 0 0 0 0 0 0 0 0 0 0 0 0 127 0" result="hardAlpha"/>
<feOffset dy="6"/>
<feGaussianBlur stdDeviation="3"/>
<feColorMatrix type="matrix" values="0 0 0 0 0 0 0 0 0 0 0 0 0 0 0 0 0 0 0.13 0"/>
<feBlend mode="normal" in2="BackgroundImageFix" result="effect1_dropShadow_1969_10436"/>
<feColorMatrix in="SourceAlpha" type="matrix" values="0 0 0 0 0 0 0 0 0 0 0 0 0 0 0 0 0 0 127 0" result="hardAlpha"/>
<feOffset dy="10"/>
<feGaussianBlur stdDeviation="10"/>
<feColorMatrix type="matrix" values="0 0 0 0 0 0 0 0 0 0 0 0 0 0 0 0 0 0 0.1 0"/>
<feBlend mode="normal" in2="effect1_dropShadow_1969_10436" result="effect2_dropShadow_1969_10436"/>
<feBlend mode="normal" in="SourceGraphic" in2="effect2_dropShadow_1969_10436" result="shape"/>
</filter>
</defs>
</svg>
