<svg width="39" height="9" viewBox="0 0 39 9" fill="none" xmlns="http://www.w3.org/2000/svg">
<g clip-path="url(#clip0_569_4775)">
<path d="M9.7381 6.70554V0.746094H13.2849V1.49363H10.4726V3.32549H12.9978V4.07236H10.4726V5.93985H13.4819V6.68671H9.7381V6.70554ZM17.2074 6.70554L15.9888 5.1224L14.7716 6.70554H13.9118L15.5772 4.58864L13.8224 2.40116H14.7905L15.9888 4.0374L17.2074 2.40116H18.1565L16.4911 4.58864L18.0672 6.70554H17.2074ZM19.2492 6.06489V8.9999H18.5147V4.60679C18.5147 3.48616 19.3744 2.29427 20.7183 2.29427C22.079 2.29427 23.1006 3.14802 23.1006 4.55301C23.1006 5.92304 22.0614 6.86553 20.8794 6.86553C20.306 6.86553 19.5362 6.6168 19.2492 6.06556V6.06489ZM22.3302 4.55301C22.3302 3.59305 21.7033 3.02366 20.593 3.07676C20.0555 3.09491 19.2316 3.48616 19.3034 4.85552C19.321 5.30055 19.7867 6.13615 20.8076 6.13615C21.6857 6.13615 22.3309 5.63869 22.3309 4.55301H22.3302ZM23.7268 6.70554V2.40116H24.462V2.86366C24.8202 2.45427 25.3753 2.31242 25.9663 2.31242V3.09491C25.877 3.07676 24.9989 2.97055 24.462 4.10866V6.72369H23.7268V6.70554ZM26.164 4.55301C26.164 3.30802 27.059 2.29427 28.2952 2.29427C29.8354 2.29427 30.4088 3.30802 30.4088 4.60679V4.96241H26.9696C27.0238 5.78053 27.7577 6.2074 28.4387 6.18993C28.9397 6.17177 29.2802 6.02926 29.6383 5.67364L30.1217 6.17177C29.6742 6.59865 29.1008 6.88301 28.4022 6.88301C27.0949 6.86553 26.1633 5.90489 26.1633 4.55301H26.164ZM28.241 3.02366C27.5424 3.02366 27.0055 3.62868 26.9696 4.28613H29.6383C29.6383 3.64615 29.1726 3.02366 28.241 3.02366ZM30.7845 6.10052L31.322 5.62053C31.3044 5.62053 31.5908 5.90489 31.6267 5.92304C31.7519 6.02926 31.8772 6.10052 32.0383 6.13615C32.5041 6.26051 33.3462 6.22488 33.418 5.58491C33.4539 5.22862 33.1851 5.03367 32.8805 4.9093C32.4865 4.76678 32.0566 4.71301 31.6619 4.53553C31.2151 4.33991 30.928 4.00177 30.928 3.50364C30.928 2.20554 32.7911 1.99176 33.6326 2.59611C33.6685 2.63241 34.0808 3.00618 34.0625 3.00618L33.5256 3.43238C33.2569 3.11239 33.0057 2.9524 32.433 2.9524C32.1459 2.9524 31.7519 3.07676 31.6802 3.37927C31.5732 3.80615 32.0566 3.96614 32.3788 4.05555C32.8087 4.16177 33.2745 4.23302 33.6509 4.46427C34.1701 4.78426 34.2954 5.47802 34.0984 6.01178C33.8838 6.59865 33.2386 6.8299 32.6659 6.84738C31.9848 6.88301 31.3938 6.66991 30.9104 6.18993C30.8745 6.18993 30.7845 6.10052 30.7845 6.10052ZM34.5642 6.10052L35.1017 5.62053C35.0834 5.62053 35.3705 5.90489 35.4063 5.92304C35.5316 6.02926 35.6568 6.10052 35.8179 6.13615C36.2837 6.26051 37.1259 6.22488 37.197 5.58491C37.2329 5.22862 36.9648 5.03367 36.6601 4.9093C36.2661 4.76678 35.8362 4.71301 35.4415 4.53553C34.9947 4.33991 34.7077 4.00177 34.7077 3.50364C34.7077 2.20554 36.5701 1.99176 37.4123 2.59611C37.4482 2.63241 37.8598 3.00618 37.8422 3.00618L37.3046 3.43238C37.0359 3.11239 36.7854 2.9524 36.212 2.9524C35.9256 2.9524 35.5316 3.07676 35.4598 3.37927C35.3522 3.80615 35.8362 3.96614 36.1585 4.05555C36.5884 4.16177 37.0541 4.23302 37.4299 4.46427C37.9498 4.78426 38.075 5.47802 37.878 6.01178C37.6628 6.59865 37.0183 6.8299 36.4448 6.84738C35.7645 6.88301 35.1735 6.66991 34.6894 6.18993C34.6535 6.18993 34.5642 6.10052 34.5642 6.10052ZM38.0568 2.40116V1.93865H37.8956V1.84992H38.3255V1.93865H38.1644V2.40116H38.0568ZM38.8631 2.40116V1.97428L38.7019 2.40116H38.6661L38.5049 1.97428V2.40116H38.4156V1.84992H38.5584L38.7019 2.22301L38.8455 1.84992H38.9883V2.40116H38.8631Z" fill="#E43225"/>
<path d="M4.75813 6.70563L4.22127 5.28249H1.31832L0.781461 6.70563H0.0117188L2.34058 0.746191H3.18208L5.49267 6.70496L4.75813 6.70563ZM2.73391 1.59994L1.6426 4.55311H3.9173L2.73391 1.59994ZM5.97604 6.70563V0.746191H6.72886V6.70496L5.97604 6.70563ZM7.85741 6.70563V2.49066H8.60955V6.70563H7.85741ZM9.32581 1.12063V1.085V1.04937C9.04871 1.03967 8.78562 0.925974 8.58962 0.731225C8.39362 0.536476 8.27929 0.275164 8.2697 0L8.16138 0C8.15178 0.275164 8.03745 0.536476 7.84145 0.731225C7.64545 0.925974 7.38237 1.03967 7.10527 1.04937V1.12063C7.38226 1.13033 7.64525 1.24392 7.84123 1.43853C8.03721 1.63314 8.15162 1.89428 8.16138 2.16933H8.2697C8.27946 1.89428 8.39386 1.63314 8.58985 1.43853C8.78583 1.24392 9.04882 1.13033 9.32581 1.12063Z" fill="#F7971D"/>
</g>
<defs>
<clipPath id="clip0_569_4775">
<rect width="39" height="9" fill="white"/>
</clipPath>
</defs>
</svg>
