<svg width="42" height="42" viewBox="0 0 42 42" fill="none" xmlns="http://www.w3.org/2000/svg"><circle cx="21" cy="21" r="10" fill="#FEE8EA"/><g fill="#ED3E44"><path fill-rule="evenodd" clip-rule="evenodd" d="M18.216 1.465A.48.48 0 0118.594 1h4.725c.244 0 .465.222.465.465v4.288c2.086.423 4.27 1.433 5.962 2.573l3.01-3.01a.483.483 0 01.654 0l3.257 3.257c.17.172.17.482 0 .654l-2.995 2.994c1.123 1.73 1.737 3.95 2.108 5.988h4.755c.243 0 .465.222.465.465v4.652a.483.483 0 01-.465.465H35.78c-.371 2.035-.988 4.247-2.108 5.974l2.995 2.994c.17.172.17.482 0 .654l-3.257 3.256a.483.483 0 01-.654 0l-3.01-3.01c-1.694 1.143-3.873 2.165-5.962 2.588v4.288a.483.483 0 01-.465.465h-4.638a.483.483 0 01-.465-.465v-4.288c-2.087-.423-4.283-1.432-5.977-2.573L9.244 36.67a.484.484 0 01-.669 0l-3.257-3.256a.483.483 0 010-.654l3.01-3.009c-1.116-1.724-1.737-3.929-2.108-5.96H1.465A.483.483 0 011 23.327v-4.652c0-.243.222-.465.465-.465h4.74c.37-2.034 1.005-4.245 2.123-5.973l-3.01-3.01a.483.483 0 010-.653l3.257-3.256a.484.484 0 01.67 0l3.01 3.009c1.69-1.138 3.879-2.15 5.96-2.573V1.465zm4.638.465h-3.708v4.186a.48.48 0 01-.393.45c-2.126.358-4.605 1.507-6.31 2.719a.482.482 0 01-.61-.058L8.91 6.305 6.322 8.907l2.922 2.921c.151.156.17.42.044.596-1.182 1.657-1.869 4.136-2.24 6.323a.481.481 0 01-.465.393H1.931v3.72h4.652a.48.48 0 01.466.378c.37 2.188 1.057 4.667 2.239 6.323a.48.48 0 01-.044.596l-2.922 2.936L8.91 35.68l2.922-2.921a.481.481 0 01.611-.044c1.705 1.212 4.184 2.346 6.31 2.703a.48.48 0 01.393.465v4.187h3.708v-4.187a.48.48 0 01.378-.465c2.126-.357 4.62-1.49 6.325-2.703a.48.48 0 01.596.044l2.923 2.921 2.617-2.587-2.937-2.936a.48.48 0 01-.044-.596c1.182-1.656 1.869-4.135 2.24-6.323a.48.48 0 01.465-.378h4.652v-3.72h-4.652a.481.481 0 01-.466-.393c-.37-2.188-1.057-4.666-2.239-6.323a.48.48 0 01.044-.595l2.937-2.922-2.617-2.616-2.923 2.936a.48.48 0 01-.596.058c-1.705-1.212-4.199-2.36-6.325-2.718a.48.48 0 01-.378-.45V1.93zm-1.847 8.372c-5.905 0-10.701 4.795-10.701 10.698a10.687 10.687 0 00.43 3l.006.023c1.307 4.435 5.41 7.674 10.265 7.674 5.905 0 10.702-4.795 10.702-10.697 0-5.903-4.797-10.698-10.702-10.698zm4.115 1.846A9.762 9.762 0 0011.236 21c0 .754.086 1.49.247 2.195l5.642-2.166a.479.479 0 01.16-.044 3.729 3.729 0 014.755-3.56l3.082-5.277zm.829.436a9.781 9.781 0 013.94 4.36l-5.67 2.181c-.319-.544-.768-1-1.309-1.323l3.039-5.218zM30.778 21a9.768 9.768 0 00-.538-3.212l-5.67 2.18c.095.329.16.673.16 1.032 0 2.05-1.672 3.72-3.723 3.72a3.66 3.66 0 01-1.44-.29.464.464 0 01-.043.087l-3.533 4.855A9.762 9.762 0 0030.778 21zm-9.77-2.79A2.784 2.784 0 0123.798 21a2.784 2.784 0 01-2.792 2.79A2.784 2.784 0 0118.216 21a2.784 2.784 0 012.791-2.79zm-2.225 5.755a3.717 3.717 0 01-1.382-2.064l-5.67 2.18a9.763 9.763 0 003.49 4.782l3.547-4.883.015-.015z"/><path d="M18.594 1V.9h-.01l-.01.002.02.098zm-.378.465h.1v-.002l-.1.002zM23.319 1V.9 1zm.465.465h.1-.1zm0 4.288h-.1v.082l.08.016.02-.098zm5.962 2.573l-.056.083.068.046.059-.059-.071-.07zm3.01-3.01l-.07-.07h-.001l.07.07zm.654 0l.07-.07-.07.07zm3.257 3.257l.071-.07v-.001l-.071.07zm0 .654l.07.07h.001l-.071-.07zm-2.995 2.994l-.07-.07-.058.056.044.068.084-.054zm2.108 5.988l-.098.018.015.082h.083v-.1zm4.755 0v-.1.1zm.465.465h.1-.1zm0 4.652h.1-.1zm-.465.465v.1-.1zm-4.755 0v-.1h-.083l-.015.082.098.018zm-2.108 5.974l-.084-.055-.044.068.057.057.07-.07zm2.995 2.994l.071-.07v-.001l-.071.07zm0 .654l.07.07h.001l-.071-.07zm-3.257 3.256l.07.07-.07-.07zm-.654 0l-.071.07.07-.07zm-3.01-3.01l.07-.07-.058-.058-.068.046.056.083zm-5.962 2.588l-.02-.098-.08.016v.082h.1zm0 4.288h.1-.1zM23.32 41v.1-.1zm-4.638 0v.1-.1zm-.465-.465h-.1.1zm0-4.288h.1v-.082l-.08-.016-.02.098zm-5.977-2.573l.056-.082-.068-.047-.058.059.07.07zM9.244 36.67l-.07-.071-.002.001.072.07zm-.669 0l.072-.07v-.001l-.072.07zm-3.257-3.256l-.07.07.07-.07zm0-.654l-.07-.071.07.07zm3.01-3.009l.07.07.058-.056-.044-.068-.084.054zM6.22 23.79l.098-.017-.015-.082H6.22v.1zm-4.755 0v.1-.1zM1 23.327H.9 1zm0-4.652H.9 1zm.465-.465v-.1.1zm4.74 0v.1h.084l.015-.082-.099-.018zm2.123-5.973l.084.054.044-.068-.057-.057-.07.07zm-3.01-3.01l-.07.071.07-.07zm0-.653l-.07-.071.07.07zm3.257-3.256l.071.07h.001l-.072-.07zm.67 0l-.073.07h.002l.07-.07zm3.01 3.009l-.072.07.059.058.068-.045-.056-.083zm5.96-2.573l.02.098.08-.016v-.082h-.1zm.931-3.823v-.1h-.1v.1h.1zm3.708 0h.1v-.1h-.1v.1zm-3.708 4.186l.1.002v-.002h-.1zm-.393.45l-.015-.098h-.001l.017.099zm-6.31 2.719l-.058-.082.058.082zm-.61-.058l.072-.069-.002-.002-.07.07zM8.91 6.305l.07-.07-.07-.071-.071.07.07.071zM6.322 8.907l-.071-.07-.07.07.07.07.07-.07zm2.922 2.921l.072-.07h-.001l-.07.07zm.044.596l-.081-.058.08.058zm-2.24 6.323l-.098-.017v.002l.099.015zm-.465.393l.002-.1h-.002v.1zm-4.652 0v-.1h-.1v.1h.1zm0 3.72h-.1v.1h.1v-.1zm4.652 0v.1h.002l-.002-.1zm.466.378l.098-.016v-.002l-.098.018zm2.239 6.323l-.082.058.082-.058zm-.044.596l.071.07h.001l-.072-.07zm-2.922 2.936l-.071-.07-.07.07.07.07.07-.07zM8.91 35.68l-.07.071.07.07.07-.07-.07-.07zm2.922-2.921l.071.07-.07-.07zm.611-.044l-.06.08.002.002.058-.082zm6.31 2.703l-.016.1.017-.1zm.393.465h-.1.1zm0 4.187h-.1v.1h.1v-.1zm3.708 0v.1h.1v-.1h-.1zm0-4.187h.1v-.001l-.1.002zm.378-.465l-.017-.098h-.002l.019.099zm6.325-2.703l.058.081-.058-.081zm.596.044l.07-.071v-.001l-.07.072zm2.923 2.921l-.071.071.07.07.07-.07-.07-.07zm2.617-2.587l.07.071.072-.07-.072-.072-.07.071zm-2.937-2.936l-.072.07h.001l.07-.07zm-.044-.596l.081.058-.08-.058zm2.24-6.323l-.099-.018v.002l.098.016zm.465-.378l-.003.1h.003v-.1zm4.652 0v.1h.1v-.1h-.1zm0-3.72h.1v-.1h-.1v.1zm-4.652 0v-.1h-.002l.002.1zm-.466-.393l.1-.015-.001-.002-.099.017zm-2.239-6.323l.081-.058-.08.058zm.044-.595l-.07-.071h-.002l.072.07zm2.937-2.922l.07.07.072-.07-.072-.07-.07.07zm-2.617-2.616l.07-.071-.07-.07-.071.07.07.07zm-2.923 2.936l-.07-.07h-.001l.071.07zm-.596.058l-.058.081.001.001.057-.082zm-6.325-2.718l-.019.098h.002l.017-.098zm-.378-.45h-.1.1zm-1.847 4.185v.1h.101v-.1h-.1zM10.698 23.863l-.096.027.002.005.094-.032zm.038.138l-.097.024.097-.024zm.006.022l-.097.024.001.004.096-.028zm10.265-13.721v-.1h-.1v.1h.1zm4.115 1.846l.087.05.055-.094-.1-.046-.042.09zM11.483 23.195l-.097.022.026.113.107-.042-.036-.093zm5.642-2.166l.036.094.007-.003-.043-.09zm.16-.044l.01.1.09-.008v-.091h-.1zm4.755-3.56l-.028.095.075.022.039-.067-.086-.05zm7.851-.48l.036.093.1-.038-.045-.097-.09.042zm-3.94-4.36l.05-.087-.086-.05-.05.086.086.05zm-1.73 6.54l-.087.05.043.074.08-.03-.036-.094zm-1.309-1.323l-.086-.05-.05.085.085.051.051-.086zm7.328-.014l.095-.033-.034-.098-.097.038.036.093zm-5.67 2.18l-.036-.093-.086.033.026.088.096-.028zm-5.002 4.462l.039-.092-.096-.04-.037.097.094.035zm-.044.087l.081.06.003-.006-.084-.054zm-3.533 4.855l-.08-.059-.065.089.094.056.05-.086zm1.41-7.47h-.1v.012l.003.012.097-.025zm1.382 2.063l.068.073.087-.081-.095-.072-.06.08zM17.4 21.901h.1v-.145l-.136.052.036.093zm-5.67 2.18l-.036-.093-.09.034.03.09.096-.03zm3.49 4.782l-.06.08.081.06.06-.08-.082-.06zm3.547-4.883l-.074-.069-.007.01.081.059zM18.575.902a.58.58 0 00-.46.565l.2-.004a.38.38 0 01.297-.365l-.037-.196zM23.319.9h-4.725v.2h4.725V.9zm.565.565A.583.583 0 0023.32.9v.2c.189 0 .365.177.365.365h.2zm0 4.288V1.465h-.2v4.288h.2zm5.918 2.49C28.1 7.097 25.905 6.08 23.804 5.655l-.04.196c2.071.42 4.242 1.423 5.926 2.558l.112-.166zm2.883-2.997l-3.01 3.009.142.141 3.01-3.008-.142-.142zm.795 0a.583.583 0 00-.795 0l.141.142a.384.384 0 01.514 0l.14-.142zm3.258 3.256L33.48 5.246l-.142.142 3.257 3.255.142-.141zm0 .795a.583.583 0 000-.795l-.142.141a.383.383 0 010 .513l.142.141zm-2.995 2.995l2.995-2.995-.142-.141-2.995 2.994.142.142zm2.136 5.9c-.372-2.043-.99-4.279-2.123-6.026l-.168.11c1.112 1.712 1.723 3.917 2.094 5.951l.197-.036zm4.656-.083H35.78v.2h4.755v-.2zm.565.565a.583.583 0 00-.565-.565v.2c.188 0 .365.177.365.365h.2zm0 4.652v-4.652h-.2v4.652h.2zm-.565.565a.583.583 0 00.565-.565h-.2a.384.384 0 01-.365.365v.2zm-4.755 0h4.755v-.2H35.78v.2zm-2.024 5.928c1.131-1.743 1.75-3.97 2.123-6.01l-.197-.036c-.37 2.03-.984 4.227-2.094 5.937l.168.109zm2.982 2.869l-2.995-2.994-.142.141 2.995 2.994.142-.141zm0 .795a.583.583 0 000-.795l-.142.141a.383.383 0 010 .514l.142.14zm-3.257 3.256l3.257-3.255-.142-.142-3.257 3.256.142.141zm-.796 0a.583.583 0 00.795 0l-.14-.142a.384.384 0 01-.514 0l-.14.143zm-3.01-3.008l3.01 3.008.141-.141-3.01-3.009-.14.142zm-5.87 2.614c2.103-.427 4.295-1.455 5.997-2.602l-.112-.166c-1.685 1.136-3.853 2.152-5.925 2.572l.04.196zm.08 4.19v-4.288h-.2v4.288h.2zm-.566.565a.583.583 0 00.565-.565h-.2a.384.384 0 01-.365.365v.2zm-4.638 0h4.638v-.2h-4.638v.2zm-.565-.565c0 .299.266.565.565.565v-.2a.384.384 0 01-.365-.365h-.2zm0-4.288v4.288h.2v-4.288h-.2zm-5.932-2.49c1.702 1.147 3.91 2.162 6.012 2.588l.04-.196c-2.072-.42-4.257-1.423-5.94-2.557l-.112.165zM9.315 36.74l2.995-2.994-.141-.141-2.995 2.994.141.141zm-.811 0c.212.219.6.219.812 0l-.144-.14a.385.385 0 01-.525 0l-.143.14zm-3.256-3.255l3.257 3.255.141-.141-3.257-3.256-.141.142zm0-.796a.583.583 0 000 .795l.142-.14a.383.383 0 010-.514l-.143-.14zm3.01-3.009l-3.01 3.009.141.141 3.01-3.008-.141-.142zm-2.136-5.87c.371 2.035.996 4.255 2.122 5.995l.168-.108c-1.105-1.708-1.724-3.897-2.094-5.923l-.196.036zm-4.657.082H6.22v-.2H1.465v.2zM.9 23.326c0 .298.266.565.565.565v-.2a.384.384 0 01-.365-.365H.9zm0-4.652v4.652h.2v-4.652H.9zm.565-.565a.583.583 0 00-.565.565h.2c0-.188.177-.365.365-.365v-.2zm4.74 0h-4.74v.2h4.74v-.2zm2.04-5.928c-1.13 1.745-1.767 3.97-2.138 6.01l.197.036c.37-2.03 1-4.225 2.108-5.937l-.168-.109zM5.247 9.297l3.01 3.01.14-.142L5.39 9.156l-.141.141zm0-.795a.583.583 0 000 .795l.142-.14a.383.383 0 010-.514l-.143-.14zm3.257-3.256L5.248 8.502l.141.141 3.257-3.255-.141-.142zm.811.001a.584.584 0 00-.812 0l.143.14a.385.385 0 01.525 0l.144-.14zm3.009 3.008l-3.01-3.009-.141.142 3.01 3.008.14-.141zm5.87-2.6c-2.096.426-4.297 1.444-5.997 2.588l.112.166c1.682-1.132 3.859-2.138 5.925-2.558l-.04-.196zm-.08-4.19v4.288h.2V1.465h-.2zm1.031.565h3.708v-.2h-3.708v.2zm.1 4.086V1.93h-.2v4.186h.2zm-.477.55a.58.58 0 00.477-.548l-.2-.004a.38.38 0 01-.308.354l.031.198zm-6.268 2.7c1.696-1.205 4.16-2.346 6.27-2.7l-.034-.198c-2.144.36-4.637 1.516-6.352 2.735l.116.163zm-.741-.07c.187.198.52.23.742.07l-.117-.162a.382.382 0 01-.48-.046l-.145.137zm-2.92-2.92l2.922 2.921.141-.141-2.922-2.921-.142.141zM6.392 8.977L8.98 6.376l-.142-.141-2.588 2.601.142.141zm2.922 2.78l-2.923-2.92-.141.14L9.174 11.9l.141-.141zm.054.726a.58.58 0 00-.053-.724l-.143.14a.38.38 0 01.034.467l.162.117zm-2.222 6.28c.37-2.183 1.054-4.643 2.222-6.28l-.163-.117C8.011 14.042 7.321 16.54 6.95 18.73l.197.034zm-.565.476a.58.58 0 00.565-.476l-.197-.032a.381.381 0 01-.365.308l-.003.2zm-4.651 0h4.652v-.2H1.931v.2zm.1 3.621v-3.72h-.2v3.72h.2zm4.552-.1H1.931v.2h4.652v-.2zm.564.46a.58.58 0 00-.565-.46l.003.2a.38.38 0 01.365.297l.197-.037zm2.222 6.283c-1.168-1.637-1.852-4.097-2.222-6.281l-.197.033c.371 2.191 1.061 4.689 2.256 6.364l.163-.116zm-.053.724a.58.58 0 00.053-.724l-.162.116a.38.38 0 01-.034.468l.143.14zm-2.923 2.937l2.922-2.937-.142-.14-2.922 2.936.142.14zm2.588 2.445l-2.589-2.587-.141.142 2.588 2.587.142-.142zm2.78-2.921L8.84 35.609l.142.142 2.922-2.922-.141-.141zm.742-.053a.581.581 0 00-.742.053l.142.141a.382.382 0 01.48-.034l.12-.16zm6.267 2.685c-2.109-.355-4.574-1.482-6.269-2.687l-.116.163c1.715 1.22 4.208 2.36 6.352 2.721l.033-.197zm.476.565a.58.58 0 00-.477-.565l-.031.197c.17.027.31.194.308.365l.2.003zm0 4.185v-4.187h-.2v4.187h.2zm3.608-.1h-3.708v.2h3.708v-.2zm-.1-4.087v4.187h.2v-4.187h-.2zm.46-.563a.58.58 0 00-.46.565l.2-.003a.38.38 0 01.297-.365l-.038-.197zm6.285-2.687c-1.695 1.205-4.175 2.332-6.284 2.687l.034.197c2.143-.36 4.65-1.501 6.366-2.72l-.116-.163zm.724.054a.58.58 0 00-.724-.053l.116.162a.381.381 0 01.468.035l.14-.144zm2.923 2.922l-2.922-2.921-.142.141 2.923 2.922.141-.142zm2.477-2.587l-2.618 2.587.14.142 2.618-2.587-.14-.142zm-2.938-2.794l2.937 2.936.142-.142-2.938-2.936-.141.142zm-.054-.725a.58.58 0 00.053.724l.144-.14a.38.38 0 01-.035-.468l-.162-.116zm2.222-6.281c-.37 2.184-1.054 4.644-2.222 6.281l.163.116c1.195-1.675 1.885-4.173 2.256-6.364l-.197-.033zm.566-.462a.58.58 0 00-.566.46l.197.037a.38.38 0 01.364-.297l.005-.2zm4.65 0h-4.652v.2h4.652v-.2zm-.1-3.62v3.72h.2v-3.72h-.2zm-4.552.1h4.652v-.2h-4.652v.2zm-.565-.477a.58.58 0 00.566.476l-.003-.2a.381.381 0 01-.365-.308l-.197.032zm-2.221-6.28c1.168 1.637 1.852 4.097 2.222 6.28l.197-.033c-.371-2.19-1.061-4.688-2.256-6.364l-.163.117zm.053-.724a.58.58 0 00-.053.724l.162-.117a.38.38 0 01.035-.468l-.144-.14zm2.938-2.923l-2.937 2.922.141.141 2.937-2.921-.14-.142zm-2.617-2.475l2.617 2.617.142-.142-2.618-2.616-.141.141zm-2.781 2.936l2.923-2.936-.142-.14-2.923 2.935.142.141zm-.724.07a.58.58 0 00.724-.07l-.142-.14a.381.381 0 01-.469.045l-.113.165zm-6.285-2.702c2.109.355 4.589 1.496 6.284 2.701l.116-.163C27.9 7.984 25.392 6.83 23.249 6.468l-.034.197zm-.461-.547a.58.58 0 00.46.547l.037-.196a.38.38 0 01-.297-.354l-.2.003zm0-4.188v4.186h.2V1.93h-.2zM10.406 21c0-5.847 4.752-10.598 10.601-10.598v-.2c-5.96 0-10.801 4.84-10.801 10.798h.2zm.389 2.837a10.587 10.587 0 01-.39-2.837h-.2c0 1 .141 1.97.397 2.89l.193-.053zm.038.14c-.01-.043-.026-.105-.04-.146l-.19.064c.011.032.025.085.036.13l.194-.049zm.006.021l-.006-.022-.194.05.006.021.194-.049zm10.168 7.6c-4.81 0-8.874-3.21-10.17-7.604l-.191.057c1.32 4.477 5.46 7.746 10.361 7.746v-.2zM31.61 21c0 5.847-4.752 10.597-10.602 10.597v.2c5.96 0 10.802-4.84 10.802-10.797h-.2zM21.007 10.402c5.85 0 10.602 4.75 10.602 10.598h.2c0-5.958-4.842-10.798-10.802-10.798v.2zm.1-.1V10.3l-.2.002.2-.002zm-.1 1.03a9.64 9.64 0 014.073.907l.084-.181a9.841 9.841 0 00-4.157-.925v.2zM11.337 21a9.662 9.662 0 019.67-9.667v-.2A9.862 9.862 0 0011.137 21h.2zm.244 2.173A9.753 9.753 0 0111.336 21h-.2c0 .761.087 1.506.25 2.217l.195-.044zm5.508-2.237l-5.641 2.166.071.186 5.642-2.166-.072-.186zm.187-.05a.576.576 0 00-.194.053l.086.18a.377.377 0 01.126-.034l-.018-.2zm3.731-3.707a3.829 3.829 0 00-3.822 3.806h.2a3.629 3.629 0 013.622-3.606v-.2zm1.06.15a3.802 3.802 0 00-1.06-.15v.2c.349 0 .686.05 1.005.141l.055-.192zm2.969-5.231l-3.083 5.276.173.1 3.082-5.275-.172-.101zm4.946 4.805a9.881 9.881 0 00-3.98-4.405l-.102.173a9.681 9.681 0 013.9 4.315l.182-.083zm-5.726 2.315l5.671-2.18-.072-.187-5.67 2.18.072.187zm-1.395-1.33c.526.314.963.758 1.273 1.288l.173-.102a3.846 3.846 0 00-1.344-1.358l-.102.172zm3.003-5.354l-3.038 5.218.172.1 3.04-5.217-.174-.101zm4.282 5.287c.346.995.532 2.064.532 3.179h.2c0-1.137-.19-2.229-.543-3.245l-.19.066zm-5.54 2.24l5.67-2.18-.072-.186-5.67 2.18.072.186zm.224.939a3.78 3.78 0 00-.164-1.06l-.192.056c.093.323.156.657.156 1.004h.2zm-3.823 3.82A3.829 3.829 0 0024.83 21h-.2a3.629 3.629 0 01-3.623 3.62v.2zm-1.478-.298c.457.194.952.299 1.478.299v-.2c-.499 0-.967-.1-1.4-.283l-.078.184zm.08.05a.564.564 0 00.052-.107l-.187-.07a.36.36 0 01-.034.069l.168.107zm-3.537 4.859l3.533-4.855-.162-.117-3.533 4.854.162.118zm4.935 1.236c-1.819 0-3.512-.51-4.965-1.38l-.103.17a9.818 9.818 0 005.068 1.41v-.2zM30.678 21a9.662 9.662 0 01-9.67 9.667v.2A9.862 9.862 0 0030.877 21h-.2zM23.9 21c0-1.602-1.29-2.89-2.892-2.89v.2c1.492 0 2.692 1.199 2.692 2.69h.2zm-2.892 2.89A2.884 2.884 0 0023.9 21h-.2c0 1.491-1.2 2.69-2.692 2.69v.2zM18.116 21c0 1.602 1.289 2.89 2.891 2.89v-.2A2.684 2.684 0 0118.316 21h-.2zm2.891-2.89A2.884 2.884 0 0018.116 21h.2c0-1.491 1.2-2.69 2.691-2.69v-.2zm-3.703 3.816a3.817 3.817 0 001.419 2.12l.12-.16a3.617 3.617 0 01-1.345-2.01l-.194.05zm-.003-.025h.2-.2zm-5.534 2.274l5.67-2.18-.072-.187-5.67 2.18.072.187zm3.513 4.608a9.663 9.663 0 01-3.454-4.733l-.19.063a9.864 9.864 0 003.525 4.83l.119-.16zm3.407-4.862l-3.548 4.884.162.117 3.548-4.884-.162-.117zm.027-.029a.35.35 0 00-.02.02l.147.136a.185.185 0 01.01-.01l-.137-.146z"/></g></svg>