<svg width="637" height="638" viewBox="0 0 637 638" fill="none" xmlns="http://www.w3.org/2000/svg"><path d="M1 4.5h2.008v-1H1v1zm6.023 0h4.015v-1H7.023v1zm8.03 0h4.015v-1h-4.015v1zm8.03 0H27.1v-1h-4.016v1zm8.03 0h4.016v-1h-4.015v1zm8.03 0h4.016v-1h-4.015v1zm8.031 0h4.015v-1h-4.015v1zm8.03 0h4.016v-1h-4.015v1zm8.03 0h4.016v-1h-4.015v1zm8.031 0h4.015v-1h-4.015v1zm8.03 0h4.016v-1h-4.016v1zm8.03 0h4.016v-1h-4.015v1zm8.031 0h4.015v-1h-4.015v1zm8.03 0h4.016v-1h-4.016v1zm8.031 0h4.015v-1h-4.015v1zm8.03 0h4.015v-1h-4.015v1zm8.03 0h4.015v-1h-4.015v1zm8.031 0h4.015v-1h-4.015v1zm8.03 0h4.015v-1h-4.015v1zm8.03 0h4.015v-1h-4.015v1zm8.03 0h4.016v-1h-4.016v1zm8.031 0h4.015v-1h-4.015v1zm8.03 0h4.015v-1h-4.015v1zm8.03 0h4.016v-1h-4.016v1zm8.031 0h4.015v-1h-4.015v1zm8.03 0h4.015v-1h-4.015v1zm8.03 0h4.015v-1h-4.015v1zm8.031 0h4.015v-1h-4.015v1zm8.03 0h4.015v-1h-4.015v1zm8.03 0h4.015v-1h-4.015v1zm8.031 0h4.015v-1h-4.015v1zm8.03 0h4.015v-1h-4.015v1zm8.03 0h4.015v-1h-4.015v1zm8.03 0h4.016v-1h-4.016v1zm8.031 0h4.015v-1h-4.015v1zm8.03 0h4.015v-1h-4.015v1zm8.03 0h4.015v-1h-4.015v1zm8.031 0h4.015v-1h-4.015v1zm8.03 0h4.015v-1h-4.015v1zm8.03 0h4.015v-1h-4.015v1zm8.03 0h4.015v-1h-4.015v1zm8.031 0h4.015v-1h-4.015v1zm8.03 0h4.015v-1h-4.015v1zm8.03 0h4.015v-1h-4.015v1zm8.03 0h4.016v-1h-4.016v1zm8.031 0h4.015v-1h-4.015v1zm8.03 0h4.015v-1h-4.015v1zm8.03 0h4.015v-1h-4.015v1zm8.031 0h4.015v-1h-4.015v1zm8.03 0h4.015v-1h-4.015v1zm8.03 0h4.015v-1h-4.015v1zm8.03 0h4.015v-1h-4.015v1zm8.031 0h4.015v-1h-4.015v1zm8.03 0h4.015v-1h-4.015v1zm8.03 0h4.015v-1h-4.015v1zm8.03 0h4.016v-1h-4.016v1zm8.031 0h4.015v-1h-4.015v1zm8.03 0h4.015v-1h-4.015v1zm8.03 0h4.015v-1h-4.015v1zm8.031 0h4.015v-1h-4.015v1zm8.03 0h4.015v-1h-4.015v1zm8.03 0h4.015v-1h-4.015v1zm8.03 0h4.015v-1h-4.015v1zm8.031 0h4.015v-1h-4.015v1zm8.03 0h4.015v-1h-4.015v1zm8.03 0h4.015v-1h-4.015v1zm8.03 0H531v-1h-2.009v1zm2.009 0c.655 0 1.309.006 1.962.018l.018-1c-.659-.012-1.319-.018-1.98-.018v1zm5.863.162c1.306.072 2.607.168 3.9.288l.092-.996a106.38 106.38 0 00-3.937-.29l-.055.998zm7.786.721c1.296.17 2.584.362 3.865.578l.166-.986a105.467 105.467 0 00-3.901-.583l-.13.991zm7.702 1.3c1.28.266 2.551.555 3.813.867l.24-.971a104.683 104.683 0 00-3.849-.875l-.204.979zm7.59 1.876c1.255.361 2.5.745 3.735 1.151l.312-.95a105.28 105.28 0 00-3.77-1.162l-.277.961zM567.363 11c1.224.454 2.437.931 3.638 1.43l.383-.924a104.954 104.954 0 00-3.673-1.443l-.348.937zm7.221 2.995c1.185.544 2.358 1.11 3.52 1.698l.451-.893a104.86 104.86 0 00-3.554-1.714l-.417.909zm6.973 3.527c1.14.631 2.268 1.284 3.382 1.957l.517-.856a105.137 105.137 0 00-3.415-1.976l-.484.875zm6.69 4.04c1.091.715 2.167 1.45 3.228 2.204l.579-.815a104.59 104.59 0 00-3.258-2.226l-.549.837zm6.371 4.527c1.033.795 2.051 1.608 3.054 2.44l.638-.77c-1.012-.84-2.04-1.66-3.083-2.462l-.609.793zm6.015 4.99c.972.869 1.927 1.755 2.865 2.66l.694-.72a105.607 105.607 0 00-2.892-2.685l-.667.745zm5.629 5.423c.904.938 1.79 1.893 2.659 2.865l.745-.667a107.12 107.12 0 00-2.684-2.892l-.72.694zm5.21 5.826c.831 1.003 1.644 2.02 2.438 3.054l.793-.609a105.256 105.256 0 00-2.461-3.083l-.77.638zm4.762 6.197a105.095 105.095 0 012.204 3.227l.837-.548c-.723-1.1-1.465-2.187-2.226-3.258l-.815.58zm4.287 6.536a102.385 102.385 0 011.957 3.382l.875-.484a104.152 104.152 0 00-1.976-3.415l-.856.517zm3.786 6.836a101.36 101.36 0 011.698 3.52l.909-.418a105.015 105.015 0 00-1.714-3.554l-.893.452zm3.264 7.102c.498 1.201.974 2.414 1.429 3.638l.937-.348c-.458-1.235-.94-2.46-1.443-3.673l-.923.383zm2.719 7.325c.406 1.235.79 2.48 1.151 3.735l.961-.277a106.13 106.13 0 00-1.162-3.77l-.95.312zm2.16 7.512c.312 1.262.601 2.533.867 3.813l.979-.204c-.268-1.292-.56-2.575-.875-3.85l-.971.24zm1.589 7.65c.216 1.28.409 2.569.578 3.865l.991-.13c-.17-1.308-.365-2.608-.583-3.901l-.986.166zm1.011 7.751c.12 1.294.216 2.594.288 3.9l.999-.055a106.38 106.38 0 00-.291-3.937l-.996.092zm.432 7.802c.012.652.018 1.306.018 1.961h1c0-.661-.006-1.321-.018-1.98l-1 .019zM635.5 109c0 .655-.006 1.309-.018 1.962l1 .018c.012-.659.018-1.319.018-1.98h-1zm-.162 5.863a104.41 104.41 0 01-.288 3.9l.996.092c.121-1.306.218-2.618.291-3.937l-.999-.055zm-.721 7.786a104.539 104.539 0 01-.578 3.865l.986.166c.218-1.293.413-2.593.583-3.901l-.991-.13zm-1.3 7.702c-.266 1.28-.555 2.551-.867 3.813l.971.24c.315-1.274.607-2.557.875-3.849l-.979-.204zm-1.876 7.59c-.361 1.255-.745 2.5-1.151 3.735l.95.312c.41-1.247.797-2.504 1.162-3.77l-.961-.277zM629 145.363a105.153 105.153 0 01-1.429 3.638l.923.383a103.98 103.98 0 001.443-3.673l-.937-.348zm-2.995 7.221a102.607 102.607 0 01-1.698 3.52l.893.451a104.657 104.657 0 001.714-3.554l-.909-.417zm-3.527 6.973a103.084 103.084 0 01-1.957 3.382l.856.517c.68-1.125 1.338-2.263 1.976-3.415l-.875-.484zm-4.04 6.69a103.674 103.674 0 01-2.204 3.228l.815.579a107.46 107.46 0 002.226-3.258l-.837-.549zm-4.528 6.371a106.874 106.874 0 01-2.438 3.054l.77.638c.839-1.012 1.66-2.04 2.461-3.083l-.793-.609zm-4.989 6.015c-.869.972-1.755 1.927-2.659 2.865l.72.694c.912-.947 1.807-1.911 2.684-2.892l-.745-.667zm-5.423 5.629c-.938.904-1.893 1.79-2.865 2.659l.667.745c.981-.877 1.945-1.772 2.892-2.684l-.694-.72zm-5.826 5.21a106.874 106.874 0 01-3.054 2.438l.609.793a105.787 105.787 0 003.083-2.461l-.638-.77zm-6.197 4.762a103.674 103.674 0 01-3.228 2.204l.549.837a107.46 107.46 0 003.258-2.226l-.579-.815zm-6.536 4.287a103.084 103.084 0 01-3.382 1.957l.484.875c1.152-.638 2.29-1.296 3.415-1.976l-.517-.856zm-6.835 3.786a102.607 102.607 0 01-3.52 1.698l.417.909c1.197-.55 2.382-1.121 3.554-1.714l-.451-.893zm-7.103 3.264c-1.201.498-2.414.975-3.638 1.429l.348.937c1.235-.458 2.46-.94 3.673-1.443l-.383-.923zm-7.325 2.719c-1.235.406-2.48.79-3.735 1.151l.277.961c1.266-.365 2.523-.752 3.77-1.162l-.312-.95zm-7.512 2.16c-1.262.312-2.533.601-3.813.867l.204.979c1.292-.268 2.575-.56 3.849-.875l-.24-.971zm-7.65 1.589c-1.281.216-2.569.409-3.865.578l.13.991c1.308-.17 2.608-.365 3.901-.583l-.166-.986zm-7.751 1.011c-1.294.12-2.594.216-3.9.288l.055.999c1.319-.073 2.631-.17 3.937-.291l-.092-.996zm-7.802.432c-.652.012-1.306.018-1.961.018v1c.661 0 1.321-.006 1.98-.018l-.019-1zM531 213.5h-2.009v1H531v-1zm-6.028 0h-4.019v1h4.019v-1zm-8.038 0h-4.019v1h4.019v-1zm-8.038 0h-4.019v1h4.019v-1zm-8.038 0h-4.018v1h4.018v-1zm-8.037 0h-4.019v1h4.019v-1zm-8.038 0h-4.019v1h4.019v-1zm-8.038 0h-4.019v1h4.019v-1zm-8.037 0h-4.019v1h4.019v-1zm-8.038 0h-4.019v1h4.019v-1zm-8.038 0h-4.019v1h4.019v-1zm-8.038 0h-4.019v1h4.019v-1zm-8.037 0h-4.019v1h4.019v-1zm-8.038 0H424.5v1h4.019v-1zm-8.038 0h-4.019v1h4.019v-1zm-8.038 0h-4.018v1h4.018v-1zm-8.037 0h-4.019v1h4.019v-1zm-8.038 0h-4.019v1h4.019v-1zm-8.038 0h-4.019v1h4.019v-1zm-8.038 0h-4.018v1h4.018v-1zm-8.037 0h-4.019v1h4.019v-1zm-8.038 0h-4.019v1h4.019v-1zm-8.038 0h-4.019v1h4.019v-1zm-8.038 0h-4.018v1h4.018v-1zm-8.037 0h-4.019v1h4.019v-1zm-8.038 0h-4.019v1h4.019v-1zm-8.038 0h-4.019v1h4.019v-1zm-8.038 0h-4.018v1h4.018v-1zm-8.037 0h-4.019v1h4.019v-1zm-8.038 0h-4.019v1h4.019v-1zm-8.038 0h-4.019v1h4.019v-1zm-8.038 0h-4.018v1h4.018v-1zm-8.037 0h-4.019v1h4.019v-1zm-8.038 0h-4.019v1h4.019v-1zm-8.038 0h-4.019v1h4.019v-1zm-8.038 0h-4.018v1h4.018v-1zm-8.037 0h-4.019v1h4.019v-1zm-8.038 0h-4.019v1h4.019v-1zm-8.038 0h-4.019v1h4.019v-1zm-8.037 0h-4.019v1h4.019v-1zm-8.038 0h-4.019v1h4.019v-1zm-8.038 0h-4.019v1h4.019v-1zm-8.038 0h-4.018v1h4.018v-1zm-8.037 0h-4.019v1h4.019v-1zm-8.038 0h-4.019v1h4.019v-1zm-8.038 0h-4.019v1h4.019v-1zm-8.037 0h-4.019v1h4.019v-1zm-8.038 0h-4.019v1h4.019v-1zm-8.038 0h-4.019v1h4.019v-1zm-8.038 0h-4.018v1h4.018v-1zm-8.037 0h-4.019v1h4.019v-1zm-8.038 0h-4.019v1h4.019v-1zm-8.038 0h-4.019v1h4.019v-1zm-8.037 0H105v1h2.01v-1zM1 634.5h2.008v-1H1v1zm6.023 0h4.015v-1H7.023v1zm8.03 0h4.015v-1h-4.015v1zm8.03 0H27.1v-1h-4.016v1zm8.03 0h4.016v-1h-4.015v1zm8.03 0h4.016v-1h-4.015v1zm8.031 0h4.015v-1h-4.015v1zm8.03 0h4.016v-1h-4.015v1zm8.03 0h4.016v-1h-4.015v1zm8.031 0h4.015v-1h-4.015v1zm8.03 0h4.016v-1h-4.016v1zm8.03 0h4.016v-1h-4.015v1zm8.031 0h4.015v-1h-4.015v1zm8.03 0h4.016v-1h-4.016v1zm8.031 0h4.015v-1h-4.015v1zm8.03 0h4.015v-1h-4.015v1zm8.03 0h4.015v-1h-4.015v1zm8.031 0h4.015v-1h-4.015v1zm8.03 0h4.015v-1h-4.015v1zm8.03 0h4.015v-1h-4.015v1zm8.03 0h4.016v-1h-4.016v1zm8.031 0h4.015v-1h-4.015v1zm8.03 0h4.015v-1h-4.015v1zm8.03 0h4.016v-1h-4.016v1zm8.031 0h4.015v-1h-4.015v1zm8.03 0h4.015v-1h-4.015v1zm8.03 0h4.015v-1h-4.015v1zm8.031 0h4.015v-1h-4.015v1zm8.03 0h4.015v-1h-4.015v1zm8.03 0h4.015v-1h-4.015v1zm8.031 0h4.015v-1h-4.015v1zm8.03 0h4.015v-1h-4.015v1zm8.03 0h4.015v-1h-4.015v1zm8.03 0h4.016v-1h-4.016v1zm8.031 0h4.015v-1h-4.015v1zm8.03 0h4.015v-1h-4.015v1zm8.03 0h4.015v-1h-4.015v1zm8.031 0h4.015v-1h-4.015v1zm8.03 0h4.015v-1h-4.015v1zm8.03 0h4.015v-1h-4.015v1zm8.03 0h4.015v-1h-4.015v1zm8.031 0h4.015v-1h-4.015v1zm8.03 0h4.015v-1h-4.015v1zm8.03 0h4.015v-1h-4.015v1zm8.03 0h4.016v-1h-4.016v1zm8.031 0h4.015v-1h-4.015v1zm8.03 0h4.015v-1h-4.015v1zm8.03 0h4.015v-1h-4.015v1zm8.031 0h4.015v-1h-4.015v1zm8.03 0h4.015v-1h-4.015v1zm8.03 0h4.015v-1h-4.015v1zm8.03 0h4.015v-1h-4.015v1zm8.031 0h4.015v-1h-4.015v1zm8.03 0h4.015v-1h-4.015v1zm8.03 0h4.015v-1h-4.015v1zm8.03 0h4.016v-1h-4.016v1zm8.031 0h4.015v-1h-4.015v1zm8.03 0h4.015v-1h-4.015v1zm8.03 0h4.015v-1h-4.015v1zm8.031 0h4.015v-1h-4.015v1zm8.03 0h4.015v-1h-4.015v1zm8.03 0h4.015v-1h-4.015v1zm8.03 0h4.015v-1h-4.015v1zm8.031 0h4.015v-1h-4.015v1zm8.03 0h4.015v-1h-4.015v1zm8.03 0h4.015v-1h-4.015v1zm8.03 0H531v-1h-2.009v1zm2.009 0c.661 0 1.321-.006 1.98-.018l-.018-1c-.653.012-1.307.018-1.962.018v1zm5.918-.163c1.319-.073 2.631-.17 3.937-.291l-.092-.996c-1.293.12-2.594.216-3.9.288l.055.999zm7.861-.729c1.308-.17 2.608-.365 3.901-.583l-.166-.986c-1.281.216-2.569.409-3.865.578l.13.991zm7.776-1.312c1.292-.268 2.575-.56 3.849-.875l-.24-.971c-1.262.312-2.533.601-3.813.867l.204.979zm7.663-1.894c1.266-.365 2.523-.752 3.77-1.162l-.312-.95c-1.235.406-2.48.79-3.735 1.151l.277.961zm7.493-2.465c1.235-.458 2.46-.94 3.673-1.443l-.383-.923c-1.201.498-2.414.974-3.638 1.429l.348.937zm7.29-3.023c1.197-.55 2.382-1.121 3.554-1.714l-.451-.893a102.607 102.607 0 01-3.52 1.698l.417.909zm7.04-3.561c1.152-.638 2.29-1.296 3.415-1.976l-.517-.856a103.084 103.084 0 01-3.382 1.957l.484.875zm6.755-4.078a107.46 107.46 0 003.258-2.226l-.579-.815a103.674 103.674 0 01-3.228 2.204l.549.837zm6.431-4.572a105.787 105.787 0 003.083-2.461l-.638-.77a106.874 106.874 0 01-3.054 2.438l.609.793zm6.073-5.037c.981-.877 1.945-1.772 2.892-2.684l-.694-.72c-.938.904-1.893 1.79-2.865 2.659l.667.745zm5.682-5.474c.912-.947 1.807-1.911 2.684-2.892l-.745-.667c-.869.972-1.755 1.927-2.659 2.865l.72.694zm5.26-5.882c.839-1.012 1.66-2.04 2.461-3.083l-.793-.609a106.874 106.874 0 01-2.438 3.054l.77.638zm4.807-6.256a107.46 107.46 0 002.226-3.258l-.837-.549a103.674 103.674 0 01-2.204 3.228l.815.579zm4.328-6.598c.68-1.125 1.338-2.263 1.976-3.415l-.875-.484a103.084 103.084 0 01-1.957 3.382l.856.517zm3.823-6.901a104.657 104.657 0 001.714-3.554l-.909-.417a102.607 102.607 0 01-1.698 3.52l.893.451zm3.294-7.171a103.98 103.98 0 001.443-3.673l-.937-.348a105.153 105.153 0 01-1.429 3.638l.923.383zm2.746-7.396c.41-1.247.797-2.504 1.162-3.77l-.961-.277c-.361 1.255-.745 2.5-1.151 3.735l.95.312zm2.181-7.584c.315-1.274.607-2.557.875-3.849l-.979-.204c-.266 1.28-.555 2.551-.867 3.813l.971.24zm1.604-7.724c.218-1.293.413-2.593.583-3.901l-.991-.13a104.539 104.539 0 01-.578 3.865l.986.166zm1.021-7.825c.121-1.306.218-2.618.291-3.937l-.999-.055a104.569 104.569 0 01-.288 3.9l.996.092zm.436-7.875c.012-.659.018-1.319.018-1.98h-1c0 .655-.006 1.309-.018 1.961l1 .019zm.018-1.98c0-.661-.006-1.321-.018-1.98l-1 .018c.012.653.018 1.307.018 1.962h1zm-.163-5.918c-.073-1.319-.17-2.631-.291-3.937l-.996.092c.12 1.293.216 2.594.288 3.9l.999-.055zm-.729-7.861c-.17-1.308-.365-2.608-.583-3.901l-.986.166c.216 1.281.409 2.569.578 3.865l.991-.13zm-1.312-7.776c-.268-1.292-.56-2.575-.875-3.849l-.971.24c.312 1.262.601 2.533.867 3.813l.979-.204zm-1.894-7.663a106.752 106.752 0 00-1.162-3.77l-.95.312c.406 1.235.79 2.48 1.151 3.735l.961-.277zm-2.465-7.493a103.98 103.98 0 00-1.443-3.673l-.923.383c.498 1.201.974 2.414 1.429 3.638l.937-.348zm-3.023-7.29a104.657 104.657 0 00-1.714-3.554l-.893.451a102.607 102.607 0 011.698 3.52l.909-.417zm-3.561-7.04a104.047 104.047 0 00-1.976-3.415l-.856.517a103.084 103.084 0 011.957 3.382l.875-.484zm-4.078-6.755a107.46 107.46 0 00-2.226-3.258l-.815.579a103.674 103.674 0 012.204 3.228l.837-.549zm-4.572-6.431a105.787 105.787 0 00-2.461-3.083l-.77.638a106.874 106.874 0 012.438 3.054l.793-.609zm-5.037-6.073a106.382 106.382 0 00-2.684-2.892l-.72.694c.904.938 1.79 1.893 2.659 2.865l.745-.667zm-5.474-5.682a106.382 106.382 0 00-2.892-2.684l-.667.745c.972.869 1.927 1.755 2.865 2.659l.694-.72zm-5.882-5.26c-1.012-.839-2.04-1.66-3.083-2.461l-.609.793c1.033.794 2.051 1.607 3.054 2.438l.638-.77zm-6.256-4.807a107.46 107.46 0 00-3.258-2.226l-.549.837c1.091.715 2.167 1.45 3.228 2.204l.579-.815zm-6.598-4.328a104.047 104.047 0 00-3.415-1.976l-.484.875c1.14.631 2.268 1.284 3.382 1.957l.517-.856zm-6.901-3.823a104.657 104.657 0 00-3.554-1.714l-.417.909c1.185.544 2.358 1.11 3.52 1.698l.451-.893zm-7.171-3.294a103.98 103.98 0 00-3.673-1.443l-.348.937c1.224.454 2.437.931 3.638 1.429l.383-.923zm-7.396-2.746c-1.247-.41-2.504-.797-3.77-1.162l-.277.961c1.255.361 2.5.745 3.735 1.151l.312-.95zm-7.584-2.181a104.252 104.252 0 00-3.849-.875l-.204.979c1.28.266 2.551.555 3.813.867l.24-.971zm-7.724-1.604a104.374 104.374 0 00-3.901-.583l-.13.991c1.296.169 2.584.362 3.865.578l.166-.986zm-7.825-1.021a106.401 106.401 0 00-3.937-.291l-.055.999c1.306.072 2.606.168 3.9.288l.092-.996zm-7.875-.436a108.75 108.75 0 00-1.98-.018v1c.655 0 1.309.006 1.961.018l.019-1zM531 423.5h-2.002v1H531v-1zm-6.007 0h-4.005v1h4.005v-1zm-8.009 0h-4.005v1h4.005v-1zm-8.01 0h-4.005v1h4.005v-1zm-8.009 0h-4.005v1h4.005v-1zm-8.01 0h-4.005v1h4.005v-1zm-8.009 0h-4.005v1h4.005v-1zm-8.01 0h-4.004v1h4.004v-1zm-8.009 0h-4.005v1h4.005v-1zm-8.01 0h-4.004v1h4.004v-1zm-8.009 0h-4.005v1h4.005v-1zm-8.009 0h-4.005v1h4.005v-1zm-8.01 0h-4.005v1h4.005v-1zm-8.009 0h-4.005v1h4.005v-1zm-8.01 0h-4.004v1h4.004v-1zm-8.009 0h-4.005v1h4.005v-1zm-8.01 0h-4.004v1h4.004v-1zm-8.009 0h-4.005v1h4.005v-1zm-8.009 0h-4.005v1h4.005v-1zm-8.01 0h-4.005v1h4.005v-1zm-8.009 0h-4.005v1h4.005v-1zm-8.01 0H360.8v1h4.004v-1zm-8.009 0h-4.005v1h4.005v-1zm-8.01 0h-4.004v1h4.004v-1zm-8.009 0h-4.005v1h4.005v-1zm-8.009 0h-4.005v1h4.005v-1zm-8.01 0h-4.005v1h4.005v-1zm-8.009 0h-4.005v1h4.005v-1zm-8.01 0h-4.004v1h4.004v-1zm-8.009 0h-4.005v1h4.005v-1zm-8.01 0h-4.004v1h4.004v-1zm-8.009 0h-4.005v1h4.005v-1zm-8.009 0h-4.005v1h4.005v-1zm-8.01 0h-4.005v1h4.005v-1zm-8.009 0h-4.005v1h4.005v-1zm-8.01 0h-4.005v1h4.005v-1zm-8.009 0h-4.005v1h4.005v-1zm-8.01 0h-4.004v1h4.004v-1zm-8.009 0h-4.005v1h4.005v-1zm-8.01 0h-4.004v1h4.004v-1zm-8.009 0h-4.005v1h4.005v-1zm-8.01 0h-4.004v1h4.004v-1zm-8.009 0h-4.005v1h4.005v-1zm-8.009 0h-4.005v1h4.005v-1zm-8.01 0h-4.005v1h4.005v-1zm-8.009 0h-4.005v1h4.005v-1zm-8.01 0h-4.005v1h4.005v-1zm-8.009 0h-4.005v1h4.005v-1zm-8.01 0h-4.005v1h4.005v-1zm-8.009 0h-4.005v1h4.005v-1zm-8.01 0h-4.004v1h4.004v-1zm-8.009 0h-4.005v1h4.005v-1zm-8.01 0h-4.004v1h4.004v-1zm-8.009 0H106.5v1h2.002v-1zm-2.002 0c-.656 0-1.312-.006-1.965-.018l-.019 1c.66.012 1.321.018 1.984.018v-1zm-5.875-.162a107.047 107.047 0 01-3.907-.289l-.093.995c1.309.122 2.624.219 3.945.292l.055-.998zm-7.802-.724a102.85 102.85 0 01-3.872-.579l-.166.987c1.295.218 2.599.413 3.909.584l.13-.992zm-7.718-1.301a105.158 105.158 0 01-3.82-.868l-.24.971c1.277.315 2.563.607 3.857.876l.203-.979zm-7.606-1.878a104.87 104.87 0 01-3.743-1.151l-.311.95c1.25.411 2.509.798 3.778 1.162l.276-.961zm-7.439-2.44a104.566 104.566 0 01-3.647-1.429l-.382.925c1.216.502 2.444.983 3.682 1.441l.347-.937zm-7.239-2.992a105.865 105.865 0 01-3.53-1.696l-.45.893c1.176.592 2.364 1.163 3.564 1.712l.416-.909zm-6.993-3.523a103.134 103.134 0 01-3.394-1.954l-.515.858c1.128.678 2.27 1.335 3.426 1.972l.483-.876zm-6.714-4.033a105.82 105.82 0 01-3.24-2.201l-.577.817c1.076.76 2.166 1.501 3.27 2.222l.547-.838zm-6.396-4.519a106.128 106.128 0 01-3.068-2.435l-.636.772c1.017.838 2.05 1.657 3.097 2.457l.607-.794zm-6.044-4.981a106.002 106.002 0 01-2.88-2.654l-.691.722c.952.911 1.921 1.805 2.907 2.68l.664-.748zm-5.66-5.413c-.91-.937-1.802-1.89-2.676-2.86l-.743.669c.883.979 1.783 1.942 2.702 2.887l.717-.696zm-5.244-5.818a105.422 105.422 0 01-2.456-3.05l-.79.613a106.749 106.749 0 002.479 3.079l.767-.642zm-4.797-6.189a105.998 105.998 0 01-2.223-3.225l-.834.552c.728 1.1 1.476 2.185 2.244 3.256l.813-.583zm-4.324-6.531a104.978 104.978 0 01-1.976-3.381l-.872.488a106.648 106.648 0 001.994 3.414l.854-.521zm-3.822-6.834a103.422 103.422 0 01-1.716-3.52l-.907.421a104.666 104.666 0 001.732 3.554l.89-.455zm-3.298-7.104a102.769 102.769 0 01-1.445-3.64l-.936.352c.463 1.236.95 2.461 1.459 3.675l.922-.387zm-2.75-7.33a103.03 103.03 0 01-1.165-3.738l-.96.279c.368 1.268.76 2.527 1.175 3.775l.95-.316zm-2.188-7.52a102.923 102.923 0 01-.878-3.818l-.978.206c.271 1.294.567 2.579.886 3.855l.97-.243zm-1.61-7.662a103.272 103.272 0 01-.585-3.871l-.992.131c.173 1.311.37 2.614.592 3.909l.986-.169zm-1.025-7.764c-.121-1.296-.219-2.598-.292-3.907l-.998.055c.074 1.322.172 2.637.295 3.945l.995-.093zm-.438-7.817c-.012-.653-.018-1.308-.018-1.965h-1c0 .663.006 1.324.018 1.984l1-.019zM1.5 319c0-.655.006-1.309.018-1.962l-1-.018C.506 317.679.5 318.339.5 319h1zm.162-5.863c.072-1.306.168-2.607.288-3.9l-.996-.092a106.37 106.37 0 00-.29 3.937l.998.055zm.721-7.786c.17-1.296.362-2.584.578-3.865l-.986-.166a105.467 105.467 0 00-.583 3.901l.991.13zm1.3-7.702c.266-1.28.555-2.551.867-3.813l-.971-.24a104.683 104.683 0 00-.875 3.849l.979.204zm1.876-7.59c.361-1.255.745-2.5 1.151-3.735l-.95-.312a105.28 105.28 0 00-1.162 3.77l.961.277zM8 282.637c.455-1.224.931-2.437 1.43-3.638l-.924-.383a105.034 105.034 0 00-1.443 3.673l.937.348zm2.995-7.221a105.483 105.483 0 011.698-3.52l-.893-.451a104.86 104.86 0 00-1.714 3.554l.909.417zm3.527-6.973c.631-1.14 1.284-2.268 1.957-3.382l-.856-.517a105.137 105.137 0 00-1.976 3.415l.875.484zm4.04-6.69c.715-1.091 1.45-2.167 2.204-3.228l-.815-.579a104.59 104.59 0 00-2.226 3.258l.837.549zm4.527-6.371a106.374 106.374 0 012.44-3.054l-.77-.638c-.84 1.012-1.66 2.04-2.462 3.083l.793.609zm4.99-6.015c.869-.972 1.755-1.927 2.66-2.865l-.72-.694c-.913.947-1.808 1.911-2.685 2.892l.745.667zm5.423-5.629c.938-.904 1.893-1.79 2.865-2.659l-.667-.745c-.98.877-1.945 1.772-2.892 2.684l.694.72zm5.826-5.21c1.003-.831 2.02-1.644 3.054-2.438l-.609-.793a105.256 105.256 0 00-3.083 2.461l.638.77zm6.197-4.762a105.095 105.095 0 013.227-2.204l-.548-.837c-1.1.723-2.187 1.465-3.258 2.226l.58.815zm6.536-4.287a102.385 102.385 0 013.382-1.957l-.484-.875c-1.152.638-2.29 1.296-3.415 1.976l.517.856zm6.836-3.786a101.36 101.36 0 013.52-1.698l-.418-.909c-1.197.55-2.382 1.121-3.554 1.714l.452.893zm7.102-3.264c1.201-.498 2.414-.974 3.638-1.429l-.348-.937c-1.235.458-2.46.94-3.673 1.443l.383.923zm7.325-2.719c1.235-.406 2.48-.79 3.735-1.151l-.277-.961c-1.266.365-2.523.752-3.77 1.162l.312.95zm7.512-2.16c1.262-.312 2.533-.601 3.813-.867l-.204-.979c-1.292.268-2.575.56-3.85.875l.24.971zm7.65-1.589c1.28-.216 2.569-.409 3.865-.578l-.13-.991c-1.308.17-2.608.365-3.901.583l.166.986zm7.751-1.011c1.294-.12 2.594-.216 3.9-.288l-.055-.999c-1.319.073-2.631.17-3.937.291l.092.996zm7.802-.432c.652-.012 1.306-.018 1.961-.018v-1c-.661 0-1.321.006-1.98.018l.019 1zM106 214.5h2.002v-1H106v1zm6.007 0h4.005v-1h-4.005v1zm8.01 0h4.004v-1h-4.004v1zm8.009 0h4.005v-1h-4.005v1zm8.009 0h4.005v-1h-4.005v1zm8.01 0h4.005v-1h-4.005v1zm8.009 0h4.005v-1h-4.005v1zm8.01 0h4.004v-1h-4.004v1zm8.009 0h4.005v-1h-4.005v1zm8.01 0h4.004v-1h-4.004v1zm8.009 0h4.005v-1h-4.005v1zm8.009 0h4.005v-1h-4.005v1zm8.01 0h4.005v-1h-4.005v1zm8.009 0h4.005v-1h-4.005v1zm8.01 0h4.004v-1h-4.004v1zm8.009 0h4.005v-1h-4.005v1zm8.01 0h4.004v-1h-4.004v1zm8.009 0h4.005v-1h-4.005v1zm8.009 0h4.005v-1h-4.005v1zm8.01 0h4.005v-1h-4.005v1zm8.009 0h4.005v-1h-4.005v1zm8.01 0h4.004v-1h-4.004v1zm8.009 0h4.005v-1h-4.005v1zm8.01 0h4.004v-1h-4.004v1zm8.009 0h4.005v-1h-4.005v1zm8.009 0h4.005v-1h-4.005v1zm8.01 0h4.005v-1h-4.005v1zm8.009 0h4.005v-1h-4.005v1zm8.01 0h4.004v-1h-4.004v1zm8.009 0h4.005v-1h-4.005v1zm8.01 0h4.004v-1h-4.004v1zm8.009 0h4.005v-1h-4.005v1zm8.009 0h4.005v-1h-4.005v1zm8.01 0h4.005v-1h-4.005v1zm8.009 0h4.005v-1h-4.005v1zm8.01 0h4.005v-1h-4.005v1zm8.009 0h4.005v-1h-4.005v1zm8.01 0h4.004v-1h-4.004v1zm8.009 0h4.005v-1h-4.005v1zm8.01 0h4.004v-1h-4.004v1zm8.009 0h4.005v-1h-4.005v1zm8.01 0h4.004v-1h-4.004v1zm8.009 0h4.005v-1h-4.005v1zm8.009 0h4.005v-1h-4.005v1zm8.01 0h4.005v-1h-4.005v1zm8.009 0h4.005v-1h-4.005v1zm8.01 0h4.005v-1h-4.005v1zm8.009 0h4.005v-1h-4.005v1zm8.01 0h4.005v-1h-4.005v1zm8.009 0h4.005v-1h-4.005v1zm8.01 0h4.004v-1h-4.004v1zm8.009 0h4.005v-1h-4.005v1zm8.01 0h4.004v-1h-4.004v1zm8.009 0h2.002v-1h-2.002v1z" fill="#474F5F"/><path fill-rule="evenodd" clip-rule="evenodd" d="M332.84 3.653l-3.893-3.51a.61.61 0 00-.787 0 .47.47 0 000 .707L331.667 4l-3.507 3.15a.47.47 0 000 .706.61.61 0 00.787 0l3.893-3.497a.47.47 0 000-.706zM328.16 213.653l3.893-3.509a.61.61 0 01.787 0 .47.47 0 010 .706l-3.507 3.15 3.507 3.15a.47.47 0 010 .706.61.61 0 01-.787 0l-3.893-3.497a.47.47 0 010-.706zM328.16 633.653l3.893-3.509a.61.61 0 01.787 0 .47.47 0 010 .706l-3.507 3.15 3.507 3.15a.47.47 0 010 .706.61.61 0 01-.787 0l-3.893-3.497a.47.47 0 010-.706zM332.84 423.653l-3.893-3.509a.61.61 0 00-.787 0 .47.47 0 000 .706l3.507 3.15-3.507 3.15a.47.47 0 000 .706.61.61 0 00.787 0l3.893-3.497a.47.47 0 000-.706z" fill="#474F5F"/></svg>