<svg width="90" height="90" viewBox="0 0 90 90" fill="none" xmlns="http://www.w3.org/2000/svg">
<g id="icon">
<path id="Oval 15" opacity="0.5" fill-rule="evenodd" clip-rule="evenodd" d="M45 90C69.8528 90 90 69.8528 90 45C90 20.1472 69.8528 0 45 0C20.1472 0 0 20.1472 0 45C0 69.8528 20.1472 90 45 90Z" fill="#D9DEE8"/>
<path id="Oval 14" fill-rule="evenodd" clip-rule="evenodd" d="M45 80C64.33 80 80 64.33 80 45C80 25.67 64.33 10 45 10C25.67 10 10 25.67 10 45C10 64.33 25.67 80 45 80Z" fill="white" stroke="#474F5F" stroke-dasharray="4 4"/>
<g id="search-2-line">
<g id="Group">
<path id="Vector" d="M43.75 32.5C49.96 32.5 55 37.54 55 43.75C55 49.96 49.96 55 43.75 55C37.54 55 32.5 49.96 32.5 43.75C32.5 37.54 37.54 32.5 43.75 32.5ZM43.75 52.5C48.5837 52.5 52.5 48.5837 52.5 43.75C52.5 38.915 48.5837 35 43.75 35C38.915 35 35 38.915 35 43.75C35 48.5837 38.915 52.5 43.75 52.5ZM54.3563 52.5887L57.8925 56.1238L56.1238 57.8925L52.5887 54.3563L54.3563 52.5887Z" fill="#023986"/>
</g>
</g>
</g>
</svg>
