<svg width="90" height="90" viewBox="0 0 90 90" fill="none" xmlns="http://www.w3.org/2000/svg">
<g id="icon">
<path id="Oval 15" opacity="0.5" fill-rule="evenodd" clip-rule="evenodd" d="M45 90C69.8528 90 90 69.8528 90 45C90 20.1472 69.8528 0 45 0C20.1472 0 0 20.1472 0 45C0 69.8528 20.1472 90 45 90Z" fill="#D9DEE8"/>
<path id="Oval 14" fill-rule="evenodd" clip-rule="evenodd" d="M45 80C64.33 80 80 64.33 80 45C80 25.67 64.33 10 45 10C25.67 10 10 25.67 10 45C10 64.33 25.67 80 45 80Z" fill="white" stroke="#474F5F" stroke-dasharray="4 4"/>
<g id="drag-drop-line">
<g id="Group">
<path id="Vector" d="M50 46.25L58.705 51.3275L54.9887 52.39L57.645 56.9913L55.48 58.2413L52.8238 53.6413L50.045 56.3288L50 46.25ZM47.5 37.5H50V40H56.25C56.5815 40 56.8995 40.1317 57.1339 40.3661C57.3683 40.6005 57.5 40.9185 57.5 41.25V46.25H55V42.5H42.5V55H47.5V57.5H41.25C40.9185 57.5 40.6005 57.3683 40.3661 57.1339C40.1317 56.8995 40 56.5815 40 56.25V50H37.5V47.5H40V41.25C40 40.9185 40.1317 40.6005 40.3661 40.3661C40.6005 40.1317 40.9185 40 41.25 40H47.5V37.5ZM35 47.5V50H32.5V47.5H35ZM35 42.5V45H32.5V42.5H35ZM35 37.5V40H32.5V37.5H35ZM35 32.5V35H32.5V32.5H35ZM40 32.5V35H37.5V32.5H40ZM45 32.5V35H42.5V32.5H45ZM50 32.5V35H47.5V32.5H50Z" fill="#023986"/>
</g>
</g>
</g>
</svg>
