<svg width="90" height="90" viewBox="0 0 90 90" fill="none" xmlns="http://www.w3.org/2000/svg">
<g id="icon">
<path id="Oval 15" opacity="0.5" fill-rule="evenodd" clip-rule="evenodd" d="M45 90C69.8528 90 90 69.8528 90 45C90 20.1472 69.8528 0 45 0C20.1472 0 0 20.1472 0 45C0 69.8528 20.1472 90 45 90Z" fill="#D9DEE8"/>
<path id="Oval 14" fill-rule="evenodd" clip-rule="evenodd" d="M45 80C64.33 80 80 64.33 80 45C80 25.67 64.33 10 45 10C25.67 10 10 25.67 10 45C10 64.33 25.67 80 45 80Z" fill="white" stroke="#474F5F" stroke-dasharray="4 4"/>
<g id="bug-line">
<g id="Group">
<path id="Vector" d="M46.25 54.875C47.6615 54.5864 48.93 53.8192 49.8411 52.7032C50.7521 51.5871 51.2498 50.1907 51.25 48.75V45C51.2517 44.1398 51.075 43.2885 50.7312 42.5H39.2688C38.925 43.2885 38.7483 44.1398 38.75 45V48.75C38.7502 50.1907 39.2479 51.5871 40.1589 52.7032C41.07 53.8192 42.3385 54.5864 43.75 54.875V47.5H46.25V54.875ZM36.92 52.1125C36.4764 51.047 36.2487 49.9041 36.25 48.75H32.5V46.25H36.25V45C36.25 44.1962 36.3588 43.4187 36.5613 42.68L33.795 41.0825L35.045 38.9175L37.57 40.375C37.6497 40.2479 37.7326 40.1228 37.8188 40H52.1813C52.2675 40.1225 52.35 40.2488 52.43 40.375L54.955 38.9175L56.205 41.0825L53.4387 42.68C53.6412 43.4175 53.75 44.1962 53.75 45V46.25H57.5V48.75H53.75C53.75 49.9412 53.5125 51.0775 53.08 52.1125L56.205 53.9175L54.955 56.0825L51.7975 54.26C50.978 55.273 49.9421 56.0897 48.7659 56.6503C47.5897 57.211 46.303 57.5013 45 57.5C43.697 57.5013 42.4103 57.211 41.2341 56.6503C40.0579 56.0897 39.022 55.273 38.2025 54.26L35.045 56.0825L33.795 53.9175L36.92 52.1138V52.1125ZM40 37.5C40 36.1739 40.5268 34.9021 41.4645 33.9645C42.4021 33.0268 43.6739 32.5 45 32.5C46.3261 32.5 47.5979 33.0268 48.5355 33.9645C49.4732 34.9021 50 36.1739 50 37.5H40Z" fill="#023986"/>
</g>
</g>
</g>
</svg>
