<svg width="90" height="90" viewBox="0 0 90 90" fill="none" xmlns="http://www.w3.org/2000/svg">
<g id="icon">
<path id="Oval 15" opacity="0.5" fill-rule="evenodd" clip-rule="evenodd" d="M45 90C69.8528 90 90 69.8528 90 45C90 20.1472 69.8528 0 45 0C20.1472 0 0 20.1472 0 45C0 69.8528 20.1472 90 45 90Z" fill="#D9DEE8"/>
<path id="Oval 14" fill-rule="evenodd" clip-rule="evenodd" d="M45 80C64.33 80 80 64.33 80 45C80 25.67 64.33 10 45 10C25.67 10 10 25.67 10 45C10 64.33 25.67 80 45 80Z" fill="white" stroke="#474F5F" stroke-dasharray="4 4"/>
<g id="upload-cloud-2-line">
<g id="Group">
<path id="Vector" d="M44.9996 45.7325L50.3034 51.035L48.5346 52.8037L46.2496 50.5188V57.5H43.7496V50.5163L41.4646 52.8037L39.6959 51.035L44.9996 45.7325ZM44.9996 32.5C47.1459 32.5001 49.2172 33.2889 50.8199 34.7164C52.4225 36.1439 53.4447 38.1106 53.6921 40.2425C55.2475 40.6666 56.6043 41.6239 57.5255 42.9469C58.4466 44.2699 58.8736 45.8746 58.7316 47.4805C58.5897 49.0864 57.888 50.5913 56.7491 51.7323C55.6102 52.8732 54.1065 53.5777 52.5009 53.7225V51.205C53.0761 51.1229 53.6292 50.9269 54.1279 50.6287C54.6265 50.3305 55.0608 49.9359 55.4053 49.468C55.7499 49.0001 55.9977 48.4683 56.1345 47.9036C56.2712 47.3388 56.2941 46.7525 56.2018 46.1788C56.1094 45.6052 55.9038 45.0556 55.5968 44.5623C55.2898 44.069 54.8876 43.6418 54.4136 43.3056C53.9397 42.9694 53.4036 42.731 52.8365 42.6043C52.2694 42.4775 51.6828 42.465 51.1109 42.5675C51.3066 41.6561 51.2961 40.7125 51.0799 39.8057C50.8637 38.8989 50.4475 38.052 49.8616 37.3269C49.2758 36.6018 48.5351 36.017 47.694 35.6152C46.8528 35.2135 45.9324 35.005 45.0002 35.005C44.0681 35.005 43.1477 35.2135 42.3065 35.6152C41.4654 36.017 40.7247 36.6018 40.1389 37.3269C39.553 38.052 39.1368 38.8989 38.9206 39.8057C38.7044 40.7125 38.6939 41.6561 38.8896 42.5675C37.7492 42.3533 36.5704 42.601 35.6126 43.256C34.6547 43.9109 33.9963 44.9196 33.7821 46.06C33.568 47.2004 33.8156 48.3792 34.4706 49.3371C35.1255 50.2949 36.1342 50.9533 37.2746 51.1675L37.4996 51.205V53.7225C35.8939 53.5779 34.3901 52.8736 33.251 51.7327C32.112 50.5919 31.41 49.0869 31.268 47.481C31.1259 45.8751 31.5527 44.2704 32.4738 42.9472C33.3949 41.6241 34.7518 40.6667 36.3071 40.2425C36.5543 38.1105 37.5764 36.1436 39.1791 34.7161C40.7818 33.2885 42.8533 32.4998 44.9996 32.5Z" fill="#023986"/>
</g>
</g>
</g>
</svg>
