<svg width="561" height="448" viewBox="0 0 561 448" fill="none" xmlns="http://www.w3.org/2000/svg"><path fill-rule="evenodd" clip-rule="evenodd" d="M280.053 170.201c29.823 0 54 24.251 54 54.172 0 29.92-24.177 54.18-54 54.18s-54-24.26-54-54.18c0-29.921 24.176-54.172 54-54.172zm11.371 46.737a2.096 2.096 0 00-2.962-.131l-11.498 10.573-5.154-5.953a2.094 2.094 0 00-2.959-.208 2.111 2.111 0 00-.207 2.968l6.566 7.588a2.102 2.102 0 001.464.713.475.475 0 00.119.01 2.09 2.09 0 001.416-.554l13.087-12.038a2.116 2.116 0 00.677-1.457 2.105 2.105 0 00-.549-1.511zm16.193 17.006a.923.923 0 00.341-1.052l-2.146-6.995a5.033 5.033 0 010-3.043l2.146-6.996a.923.923 0 00-.341-1.051l-5.834-4.395a4.983 4.983 0 01-1.781-2.46l-2.363-6.921a.908.908 0 00-.891-.648l-7.295-.113a5.027 5.027 0 01-2.881-.939l-5.968-4.216a.902.902 0 00-1.102 0l-5.968 4.216a5.03 5.03 0 01-2.882.939l-7.294.113a.906.906 0 00-.891.648l-2.363 6.92a4.981 4.981 0 01-1.781 2.461l-5.834 4.394a.924.924 0 00-.341 1.052l2.147 6.996c.313.99.313 2.053 0 3.042l-2.147 6.996a.923.923 0 00.34 1.052l5.835 4.395a4.989 4.989 0 011.781 2.46l2.362 6.921a.902.902 0 00.892.648l7.294.122c1.035 0 2.044.329 2.882.939l5.969 4.206a.922.922 0 001.102 0l5.968-4.206a4.895 4.895 0 012.881-.939l7.295-.122a.903.903 0 00.892-.648l2.362-6.921a4.989 4.989 0 011.781-2.46l5.835-4.395h-.002zm4.348-2.291l-2.146-6.996a.837.837 0 010-.563l2.146-6.996a5.132 5.132 0 00-.013-3.121 5.108 5.108 0 00-1.818-2.532l-5.834-4.395a.82.82 0 01-.331-.46l-2.363-6.921a5.12 5.12 0 00-1.839-2.515 5.095 5.095 0 00-2.953-.978l-7.295-.113a.844.844 0 01-.535-.178l-5.97-4.207a5.093 5.093 0 00-5.923 0l-5.969 4.207a.844.844 0 01-.536.178l-7.294.113a5.095 5.095 0 00-2.953.978 5.127 5.127 0 00-1.84 2.515l-2.362 6.921a.825.825 0 01-.331.46l-5.835 4.395a5.108 5.108 0 00-1.818 2.532 5.14 5.14 0 00-.013 3.121l2.147 6.996a.85.85 0 010 .563l-2.147 6.996a5.136 5.136 0 00.013 3.12 5.115 5.115 0 001.818 2.533l5.835 4.394a.825.825 0 01.331.46l2.362 6.921a5.094 5.094 0 001.837 2.519 5.07 5.07 0 002.956.973l7.294.113a.907.907 0 01.536.178l5.969 4.212a5.092 5.092 0 005.923 0l5.968-4.212a.91.91 0 01.536-.178l7.295-.113a5.07 5.07 0 002.956-.973 5.092 5.092 0 001.836-2.519l2.363-6.921a.824.824 0 01.331-.46l5.835-4.394a5.121 5.121 0 001.831-5.653zm-31.912 9.089a16.27 16.27 0 009.064-2.756 16.371 16.371 0 006.01-7.345 16.42 16.42 0 00.929-9.457 16.385 16.385 0 00-4.464-8.381 16.273 16.273 0 00-17.778-3.55 16.33 16.33 0 00-7.322 6.029 16.4 16.4 0 002.033 20.661 16.3 16.3 0 0011.528 4.799zm0-36.941a20.452 20.452 0 00-11.394 3.466 20.562 20.562 0 00-7.554 9.233 20.64 20.64 0 00-1.168 11.887 20.593 20.593 0 005.612 10.535 20.478 20.478 0 0010.499 5.632c3.978.794 8.101.387 11.849-1.17a20.516 20.516 0 009.203-7.578 20.624 20.624 0 003.456-11.431 20.633 20.633 0 00-6.011-14.54 20.498 20.498 0 00-14.492-6.034z" fill="#023986"/><path fill="#023986" d="M265.98 223.532l4.526-3.953 1.295 1.492-4.526 3.953zM290.074 214.608l4.243 4.257-1.796 1.8-4.242-4.256z"/><path stroke="#023986" stroke-dasharray="2 2" d="M280.5 267.464v140.464M280.5 40.713v140.465"/><g filter="url(#filter0_dd_1969_10435)"><circle cx="280" cy="223" r="94.5" stroke="#D9DEE8"/></g><path d="M280.5 445c-6.904 0-12.5-5.596-12.5-12.5s5.596-12.5 12.5-12.5 12.5 5.596 12.5 12.5-5.596 12.5-12.5 12.5zm0-2.5a10.001 10.001 0 10-.001-20.002 10.001 10.001 0 00.001 20.002zm-1.246-5l-5.304-5.304 1.767-1.767 3.537 3.536 7.07-7.071 1.768 1.767-8.838 8.839z" fill="#023986"/><g clip-path="url(#clip0_1969_10435)"><path d="M271.819 18.75l-5.569 4.375V3.75a1.252 1.252 0 011.25-1.25h18.75a1.25 1.25 0 011.25 1.25v15h-15.681zm-.865-2.5H285V5h-16.25v12.981l2.204-1.731zm4.046 5h12.796L290 22.981V10h1.25a1.25 1.25 0 011.25 1.25v16.875l-5.569-4.375H276.25A1.25 1.25 0 01275 22.5v-1.25z" fill="#023986"/></g><path transform="rotate(141.949 192.1 127.805) skewX(-.102)" stroke="#023986" stroke-dasharray="2 2" d="M0-.5h139.827"/><path d="M456.739 81.898L491.172 52h68.867" stroke="#023986" stroke-dasharray="2 2"/><g clip-path="url(#clip1_1969_10435)"><path d="M441 108.5c-6.904 0-12.5-5.596-12.5-12.5s5.596-12.5 12.5-12.5 12.5 5.596 12.5 12.5-5.596 12.5-12.5 12.5zm0-2.5a10.001 10.001 0 10-.001-20.002A10.001 10.001 0 00441 106zm1.25-11.25H446l-6.25 8.75v-6.25H436l6.25-8.75v6.25z" fill="#023986"/></g><path transform="rotate(-38.051 510.45 -47.701) skewX(-.102)" stroke="#023986" stroke-dasharray="2 2" d="M0-.5h139.827"/><path d="M103.3 330.102L68.867 360H0" stroke="#023986" stroke-dasharray="2 2"/><g clip-path="url(#clip2_1969_10435)"><path d="M119 304.25l10.271 2.283c.571.127.979.633.979 1.22v12.483a7.499 7.499 0 01-3.34 6.24L119 331.75l-7.91-5.274a7.495 7.495 0 01-3.34-6.238v-12.485c0-.587.407-1.093.979-1.22L119 304.25zm0 2.561l-8.75 1.944v11.481a5 5 0 002.226 4.16l6.524 4.35 6.524-4.35a4.996 4.996 0 002.226-4.158v-11.483l-8.75-1.943v-.001zm5.565 6.467l1.769 1.767-7.955 7.955-5.304-5.304 1.767-1.767 3.535 3.535 6.188-6.188v.002z" fill="#023986"/></g><path transform="matrix(.78746 .61637 .61496 -.78856 137.892 110.043)" stroke="#023986" stroke-dasharray="2 2" d="M0-.5h139.827"/><path d="M103.3 81.898L68.867 52H0" stroke="#023986" stroke-dasharray="2 2"/><g clip-path="url(#clip3_1969_10435)"><path d="M119 83.5c6.904 0 12.5 5.596 12.5 12.5s-5.596 12.5-12.5 12.5-12.5-5.596-12.5-12.5 5.596-12.5 12.5-12.5zm0 2.5c-5.523 0-10 4.478-10 10 0 5.523 4.477 10 10 10s10-4.477 10-10c0-5.522-4.477-10-10-10zm0 1.25c1.273 0 2.481.271 3.573.76l-1.954 1.953a6.25 6.25 0 00-6.039 10.457l-1.768 1.768-.194-.202A8.75 8.75 0 01119 87.25zm7.99 5.179c.488 1.09.76 2.3.76 3.571a8.73 8.73 0 01-2.562 6.188l-1.768-1.768a6.26 6.26 0 001.618-6.039l1.952-1.952zm-2.687-3.5l1.768 1.767-4.655 4.658a2.5 2.5 0 11-1.77-1.77l4.658-4.655h-.001z" fill="#023986"/></g><path transform="matrix(-.78746 -.61637 -.61496 .78856 422.147 304.485)" stroke="#023986" stroke-dasharray="2 2" d="M0-.5h139.827"/><path d="M456.739 330.102L491.172 360h68.867" stroke="#023986" stroke-dasharray="2 2"/><g clip-path="url(#clip4_1969_10435)"><path d="M450.219 321.879a10.002 10.002 0 00-14.182-12.563l-1.24-2.171a12.506 12.506 0 016.231-1.647c2.185.006 4.33.584 6.222 1.677 5.612 3.24 7.762 10.178 5.146 15.963l1.678.967-5.207 2.768-.206-5.893 1.558.899zm-18.438-7.758a10.002 10.002 0 0014.181 12.563l1.24 2.171a12.5 12.5 0 01-12.452-.03c-5.613-3.24-7.763-10.177-5.146-15.962l-1.679-.967 5.206-2.767.206 5.892-1.557-.898.001-.002zm10.988 7.414L439.23 318l-3.535 3.535-1.768-1.767 5.304-5.303 3.536 3.535 3.537-3.535 1.767 1.768-5.304 5.302h.002z" fill="#023986"/></g><defs><clipPath id="clip0_1969_10435"><path fill="#fff" transform="translate(265)" d="M0 0h30v30H0z"/></clipPath><clipPath id="clip1_1969_10435"><path fill="#fff" transform="translate(426 81)" d="M0 0h30v30H0z"/></clipPath><clipPath id="clip2_1969_10435"><path fill="#fff" transform="translate(104 303)" d="M0 0h30v30H0z"/></clipPath><clipPath id="clip3_1969_10435"><path fill="#fff" transform="translate(104 81)" d="M0 0h30v30H0z"/></clipPath><clipPath id="clip4_1969_10435"><path fill="#fff" transform="translate(426 303)" d="M0 0h30v30H0z"/></clipPath><filter id="filter0_dd_1969_10435" x="165" y="118" width="230" height="230" filterUnits="userSpaceOnUse" color-interpolation-filters="sRGB"><feFlood flood-opacity="0" result="BackgroundImageFix"/><feColorMatrix in="SourceAlpha" values="0 0 0 0 0 0 0 0 0 0 0 0 0 0 0 0 0 0 127 0" result="hardAlpha"/><feOffset dy="6"/><feGaussianBlur stdDeviation="3"/><feColorMatrix values="0 0 0 0 0 0 0 0 0 0 0 0 0 0 0 0 0 0 0.23 0"/><feBlend in2="BackgroundImageFix" result="effect1_dropShadow_1969_10435"/><feColorMatrix in="SourceAlpha" values="0 0 0 0 0 0 0 0 0 0 0 0 0 0 0 0 0 0 127 0" result="hardAlpha"/><feOffset dy="10"/><feGaussianBlur stdDeviation="10"/><feColorMatrix values="0 0 0 0 0 0 0 0 0 0 0 0 0 0 0 0 0 0 0.19 0"/><feBlend in2="effect1_dropShadow_1969_10435" result="effect2_dropShadow_1969_10435"/><feBlend in="SourceGraphic" in2="effect2_dropShadow_1969_10435" result="shape"/></filter></defs></svg>