<svg xmlns="http://www.w3.org/2000/svg" width="28" height="21" viewBox="0 0 28 21">
  <g id="Saudi-flag" transform="translate(-10897 -2930)">
    <rect id="Rectangle_2413" data-name="Rectangle 2413" width="28" height="21" rx="3" transform="translate(10897 2930)" fill="#006b3b"/>
    <g id="Group_2439" data-name="Group 2439" transform="translate(10829 2794)">
      <path id="Path_2389" data-name="Path 2389" d="M72.643,151.02c.06.387.294.508.5.492a.5.5,0,0,0,.45-.469v-1.327a.121.121,0,1,1,.241,0v1.332a.482.482,0,0,0,.662.448l.121-.048c.011,1.114-.057,2.092-.058,2.11a.241.241,0,0,0,.223.258H74.8a.241.241,0,0,0,.24-.224c.006-.078.08-1.15.058-2.337l.073-.029a.242.242,0,0,1,.2.008.689.689,0,0,0,.8-.129l.043-.043a.72.72,0,0,0,.175-.741l-.205-.616a.241.241,0,0,0,.179-.446l-.482-.241a.241.241,0,0,0-.337.292l.388,1.164a.24.24,0,0,1-.058.247l-.043.043a.207.207,0,0,1-.239.039.721.721,0,0,0-.5-.05,8.318,8.318,0,0,0-.295-2.078.241.241,0,0,0-.458.153,8.287,8.287,0,0,1,.276,2.105l-.289.115v-1.332a.6.6,0,0,0-1.206,0v1.168l-.246-1.215a.241.241,0,1,0-.473.1Z" transform="translate(-1.092 -8.07)" fill="#f5f5f5"/>
      <path id="Path_2390" data-name="Path 2390" d="M80.939,145.082a.241.241,0,0,0,.241-.241V144.6a.241.241,0,0,0-.482,0v.241A.241.241,0,0,0,80.939,145.082Z" transform="translate(-8.924 -4.159)" fill="#f5f5f5"/>
      <path id="Path_2391" data-name="Path 2391" d="M122.481,144.839h.241a.241.241,0,1,0,0-.482h-.241a.241.241,0,0,0,0,.482Z" transform="translate(-48.053 -4.158)" fill="#f5f5f5"/>
      <path id="Path_2392" data-name="Path 2392" d="M77.866,206.7l-1.206.724a.241.241,0,0,0,.248.414l1.206-.724a.241.241,0,0,0-.248-.414Z" transform="translate(-5.01 -62.852)" fill="#f5f5f5"/>
      <path id="Path_2393" data-name="Path 2393" d="M92.765,152.347l.006,0a.55.55,0,0,0,.111.227.474.474,0,0,0,.411.16.665.665,0,0,0,.5-.264.436.436,0,0,0,.051.03.457.457,0,0,0,.425-.014.916.916,0,0,0,.432-.849.247.247,0,0,0-.251-.228.242.242,0,0,0-.231.25s.006.289-.169.4a.588.588,0,0,1-.075-.2.241.241,0,0,0-.479.04c0,.035-.008.345-.247.37a.589.589,0,0,1,0-.316.241.241,0,0,0-.37-.255l-.135.092c-.064-1.4-.211-3.029-.213-3.05a.241.241,0,0,0-.481.044c0,.022.172,1.908.225,3.348l-.037.036a.622.622,0,0,0-.528-.415.88.88,0,0,0-.85.538.57.57,0,0,0,.184.719.8.8,0,0,0,.719.033,2.017,2.017,0,0,1-.392.744,1.012,1.012,0,0,1-.771.393.633.633,0,0,1-.468-.2,1.377,1.377,0,0,1-.255-.863.241.241,0,0,0-.228-.253.236.236,0,0,0-.254.228,1.85,1.85,0,0,0,.379,1.212,1.106,1.106,0,0,0,.807.358h.049a1.47,1.47,0,0,0,1.107-.561,2.5,2.5,0,0,0,.552-1.236,2.734,2.734,0,0,1-1.157,2.166,1.2,1.2,0,0,1-1.208.088,1.035,1.035,0,0,1-.531-1.02.241.241,0,1,0-.479-.06,1.515,1.515,0,0,0,.8,1.512,1.639,1.639,0,0,0,.73.174,1.785,1.785,0,0,0,.946-.285,3.207,3.207,0,0,0,1.385-2.577C92.773,152.7,92.77,152.526,92.765,152.347Zm-1.454.249c-.043-.029-.009-.12,0-.138a.41.41,0,0,1,.337-.237h.019c.031,0,.113.011.148.193,0,.019.007.039.009.059C91.553,152.632,91.373,152.637,91.311,152.6Z" transform="translate(-16.657 -8.069)" fill="#f5f5f5"/>
      <path id="Path_2394" data-name="Path 2394" d="M72.137,240.911a.242.242,0,0,0-.33.086.5.5,0,0,1-.041.057l-.008-.02a1.622,1.622,0,0,1,.007-.818.241.241,0,0,0-.466-.124,2.077,2.077,0,0,0,.007,1.112c.111.295.281.369.4.38h.033a.634.634,0,0,0,.481-.345A.241.241,0,0,0,72.137,240.911Z" transform="translate(0 -94.166)" fill="#f5f5f5"/>
      <path id="Path_2395" data-name="Path 2395" d="M159.7,146.527a.239.239,0,0,0,.149-.052l1.216-.955a.232.232,0,0,0,.04-.047.6.6,0,1,0-.693-.054l-.861.676a.241.241,0,0,0,.149.431Zm1.1-1.688a.121.121,0,1,1-.121.121A.121.121,0,0,1,160.792,144.838Z" transform="translate(-83.108 -4.157)" fill="#f5f5f5"/>
      <path id="Path_2396" data-name="Path 2396" d="M171.774,177.6a.241.241,0,0,0-.305.152.737.737,0,0,0,.094.711.487.487,0,0,0,.36.138,1.06,1.06,0,0,0,.333-.061.241.241,0,1,0-.153-.457.842.842,0,0,1-.2.042.461.461,0,0,1,.02-.22A.241.241,0,0,0,171.774,177.6Z" transform="translate(-94.375 -35.461)" fill="#f5f5f5"/>
      <path id="Path_2397" data-name="Path 2397" d="M222.287,145.139a.241.241,0,0,0,.3-.164l.141-.482a.241.241,0,1,0-.463-.135l-.141.482A.241.241,0,0,0,222.287,145.139Z" transform="translate(-142.128 -3.994)" fill="#f5f5f5"/>
      <path id="Path_2398" data-name="Path 2398" d="M196.338,141.116a.241.241,0,1,0,.243-.416c-.049-.028-.042-.108-.04-.124a.189.189,0,0,1,.111-.161.241.241,0,0,0-.143-.461.662.662,0,0,0-.447.567A.6.6,0,0,0,196.338,141.116Z" transform="translate(-117.585)" fill="#f5f5f5"/>
      <path id="Path_2399" data-name="Path 2399" d="M164.024,227.442a.241.241,0,0,0-.045.478.452.452,0,0,1,.045.245.241.241,0,0,0,.482,0C164.507,227.45,164.044,227.442,164.024,227.442Z" transform="translate(-87.184 -82.419)" fill="#f5f5f5"/>
      <path id="Path_2400" data-name="Path 2400" d="M230.724,199.05a.561.561,0,0,0,.091.007.824.824,0,0,0,.571-.285.241.241,0,0,0-.341-.341c-.144.144-.222.147-.242.143-.046-.007-.088-.067-.1-.083a.241.241,0,0,0-.43.219A.652.652,0,0,0,230.724,199.05Z" transform="translate(-149.792 -55.026)" fill="#f5f5f5"/>
      <path id="Path_2401" data-name="Path 2401" d="M301.345,178.223l0-.011a.241.241,0,0,0-.457.154.54.54,0,0,0,.392.376.4.4,0,0,0,.053,0,.591.591,0,0,0,.467-.322.241.241,0,1,0-.4-.268A.736.736,0,0,1,301.345,178.223Z" transform="translate(-216.313 -35.893)" fill="#f5f5f5"/>
      <path id="Path_2402" data-name="Path 2402" d="M195.22,154.776c0-1.029-.045-1.994-.108-2.839a12.216,12.216,0,0,1,.847,1.718.241.241,0,0,0,.452-.17,15.97,15.97,0,0,0-1.395-2.644c-.132-1.3-.279-2.124-.282-2.139a.241.241,0,0,0-.475.086c0,.01.078.435.169,1.15-.185-.275-.357-.523-.5-.727l.012,0a.241.241,0,1,0,.153-.457l-.724-.241a.239.239,0,0,0-.307.162.526.526,0,0,0-.5-.121.411.411,0,0,0-.23.429,2.181,2.181,0,0,0,.166.683c.142.4.231.7.081.839a.263.263,0,0,1-.247.087c-.149-.038-.3-.236-.394-.53a.23.23,0,0,0-.019-.034,4.1,4.1,0,0,0-.074-1.335.241.241,0,1,0-.473.095,2.3,2.3,0,0,1-.126,1.719.433.433,0,0,1-.361.163.139.139,0,0,1-.115-.054,2.324,2.324,0,0,1-.128-1.36.241.241,0,0,0-.239-.275c-.415,0-.572.472-.711.889-.061.183-.174.523-.254.559-.146,0-.24-.429-.241-.724a.241.241,0,0,0-.241-.241h0a.241.241,0,0,0-.241.241c0,.556.19,1.206.724,1.206.4,0,.559-.433.694-.836a1.512,1.512,0,0,0,.274.857.619.619,0,0,0,.48.22.918.918,0,0,0,.734-.34,1.125,1.125,0,0,0,.09-.133.9.9,0,0,0,.505.379.7.7,0,0,0,.17.022.765.765,0,0,0,.525-.224.711.711,0,0,0,.081-.1.651.651,0,0,0,.178.027.976.976,0,0,0,.5-.154.241.241,0,0,0-.259-.407.512.512,0,0,1-.273.072,2.49,2.49,0,0,0-.183-.793,3.335,3.335,0,0,1-.125-.4c.02.017.039.034.057.051a.241.241,0,0,0,.341,0,.23.23,0,0,0,.035-.053c.25.344.764,1.068,1.293,1.9.1,1.026.19,2.334.19,3.769a.241.241,0,0,0,.482,0Z" transform="translate(-110.661 -8.064)" fill="#f5f5f5"/>
      <path id="Path_2403" data-name="Path 2403" d="M301.113,149.478a.241.241,0,1,0,.482,0,2.462,2.462,0,0,0-.267-.832.241.241,0,1,0-.432.216A2.141,2.141,0,0,1,301.113,149.478Z" transform="translate(-216.313 -8.073)" fill="#f5f5f5"/>
      <path id="Path_2404" data-name="Path 2404" d="M264.8,248.722a.241.241,0,0,0-.324.106.689.689,0,0,1-.1.143,1.346,1.346,0,0,1,.063-.446.241.241,0,0,0-.4-.241l-.482.482a.241.241,0,0,0,.341.341l.012-.012a.5.5,0,0,0,.129.253.441.441,0,0,0,.313.138.422.422,0,0,0,.066-.005.786.786,0,0,0,.489-.437A.241.241,0,0,0,264.8,248.722Z" transform="translate(-181.096 -101.984)" fill="#f5f5f5"/>
      <path id="Path_2405" data-name="Path 2405" d="M155.142,195.91h-1.7q.023-.09.046-.172c.678-.141,1.081-.36,1.2-.652a.539.539,0,0,0-.091-.541.6.6,0,0,0-.61-.26c-.343.07-.648.439-.867,1.03a2.772,2.772,0,0,0-1.393.6,3.74,3.74,0,0,0-.5-1.6.241.241,0,0,0-.4.268,3.483,3.483,0,0,1,.442,1.8,1.909,1.909,0,0,1-1.447,1.93c-.271,0-.389-.322-.442-.594a2.77,2.77,0,0,0,1.158-1.277,1.919,1.919,0,0,0-.16-1.308l-.018-.042.015.014a.241.241,0,1,0,.341-.341c-.141-.141-.415-.363-.664-.259a.41.41,0,0,0-.23.429,1.027,1.027,0,0,0,.112.388,1.458,1.458,0,0,1,.136,1,2.041,2.041,0,0,1-.79.871.237.237,0,0,0-.182-.088h0a.241.241,0,0,0-.241.241c0,.043,0,.09,0,.137a12.693,12.693,0,0,1-1.552.849.241.241,0,0,0,.1.461.239.239,0,0,0,.1-.022,13.879,13.879,0,0,0,1.441-.771.938.938,0,0,0,.872.793,2.049,2.049,0,0,0,1.614-1.18,1.4,1.4,0,0,0,.161.23,2.719,2.719,0,0,0,1.843.708.241.241,0,0,0,.017-.482.517.517,0,0,1-.3-.146.413.413,0,0,1-.079-.317c.025-.3.984-.519,1.829-.533a.242.242,0,0,0,.224-.16l.241-.678a.242.242,0,0,0-.227-.322Zm-1.059-1.152.018,0c.023,0,.059.011.108.077.009.012.039.054.031.073-.028.068-.194.181-.541.283C153.852,194.891,154,194.775,154.083,194.758Zm-1.457,3.171a1.476,1.476,0,0,1-.668-.406,1.025,1.025,0,0,1-.214-.849.714.714,0,0,1,.05-.1c.34-.031,1.247.1,1.31.363a.81.81,0,0,0-.51.629A1.02,1.02,0,0,0,152.626,197.929Z" transform="translate(-71.533 -51.113)" fill="#f5f5f5"/>
      <path id="Path_2406" data-name="Path 2406" d="M298.634,149.4l-.241-.724a.241.241,0,0,0-.469.1c.166,1.664.481,4.91.481,5.283,0,.334-.595.992-1.555,1.473a.241.241,0,0,0,.216.432c.877-.439,1.822-1.222,1.822-1.9,0-.356-.247-2.921-.388-4.361A.241.241,0,0,0,298.634,149.4Z" transform="translate(-212.399 -8.068)" fill="#f5f5f5"/>
      <path id="Path_2407" data-name="Path 2407" d="M351.52,182.1a.241.241,0,0,0,.4-.23,1.215,1.215,0,0,1-.035-.468.245.245,0,0,0,.251-.207.241.241,0,0,0-.2-.273.436.436,0,0,0-.4.134.552.552,0,0,0-.122.259l-.279-.279a.241.241,0,0,0-.341.341Z" transform="translate(-263.273 -38.595)" fill="#f5f5f5"/>
      <path id="Path_2408" data-name="Path 2408" d="M357.44,204.893l-.9.648a.241.241,0,1,0,.281.392l.9-.648a.241.241,0,1,0-.281-.392Z" transform="translate(-268.651 -61.136)" fill="#f5f5f5"/>
      <path id="Path_2409" data-name="Path 2409" d="M371.545,219.743a.241.241,0,0,0,.021.32.669.669,0,0,1,.049.347.241.241,0,0,0,.233.25h.009a.241.241,0,0,0,.241-.232c.018-.492-.144-.672-.214-.727A.241.241,0,0,0,371.545,219.743Z" transform="translate(-282.835 -75.079)" fill="#f5f5f5"/>
      <path id="Path_2410" data-name="Path 2410" d="M338.433,154.51a.241.241,0,0,0,.241-.241c0-.356-.018-.753-.048-1.167a8.82,8.82,0,0,1,.565,1.05.241.241,0,0,0,.222.146.237.237,0,0,0,.095-.02.241.241,0,0,0,.127-.317,13.27,13.27,0,0,0-1.1-1.9c-.095-.885-.218-1.753-.314-2.375a.233.233,0,0,0,.151-.037.136.136,0,1,1,.133-.149.877.877,0,0,1,.088.591.241.241,0,0,0,.187.285.252.252,0,0,0,.049,0,.241.241,0,0,0,.236-.193,1.367,1.367,0,0,0-.153-.947.242.242,0,0,0-.333-.074.239.239,0,0,0-.108.218.236.236,0,0,0-.027-.07l-.407-.633a.241.241,0,0,0-.44.172c0,.019.188,1.077.351,2.353-.185-.261-.37-.516-.549-.76-.029-.365-.058-.7-.084-.981a.254.254,0,0,0,.039-.016.241.241,0,0,0,.108-.324l-.241-.482a.241.241,0,0,0-.456.132c.029.288.059.607.088.941-.153-.2-.294-.385-.415-.541a.241.241,0,0,0-.049-.4l-.482-.241a.241.241,0,0,0-.3.367c.013.016.607.761,1.317,1.722a19.39,19.39,0,0,1,.089,3.6c-.021.064-.058.138-.093.141-.146.02-.494-.306-.669-.655a.336.336,0,0,0-.323-.219c-.259.016-.36.3-.544.819a3.4,3.4,0,0,1-.479,1.021,2.74,2.74,0,0,1-.3-.95.24.24,0,0,0,.466-.081c0-.36-.252-3.1-.392-4.6a.241.241,0,0,0,.138-.3l-.241-.724a.241.241,0,0,0-.469.1c.164,1.721.471,5.044.481,5.5l0-.012a.241.241,0,1,0-.477.068c.07.493.25,1.341.665,1.479a.4.4,0,0,0,.128.021.474.474,0,0,0,.339-.157,3.477,3.477,0,0,0,.6-1.205c.035-.1.077-.218.117-.319.221.323.607.726,1,.694a.592.592,0,0,0,.516-.47,13.58,13.58,0,0,0-.009-3.011c.2.285.407.576.6.865.075.722.129,1.446.129,2.04A.241.241,0,0,0,338.433,154.51Z" transform="translate(-247.618 -8.069)" fill="#f5f5f5"/>
      <path id="Path_2411" data-name="Path 2411" d="M407.436,153.734c-.171-1.273-.409-2.747-.56-3.653a.238.238,0,0,0,.2-.043.241.241,0,0,0,.045-.338l-.437-.573a.241.241,0,0,0-.429.188c0,.025.434,2.5.7,4.483a2.261,2.261,0,0,1-.4,1.81,1.067,1.067,0,0,1-.885.33.241.241,0,1,0-.03.482c.041,0,.081,0,.121,0a1.522,1.522,0,0,0,1.147-.486A2.7,2.7,0,0,0,407.436,153.734Z" transform="translate(-314.791 -8.562)" fill="#f5f5f5"/>
      <path id="Path_2412" data-name="Path 2412" d="M393.371,256.1a.244.244,0,0,0,.012.339.1.1,0,0,1,.029.05.112.112,0,0,1-.036.054.241.241,0,1,0,.341.341.547.547,0,0,0,.178-.411.574.574,0,0,0-.189-.393A.239.239,0,0,0,393.371,256.1Z" transform="translate(-303.379 -109.341)" fill="#f5f5f5"/>
      <path id="Path_2413" data-name="Path 2413" d="M137.195,340.66h-1.688v-.241a.241.241,0,1,0-.482,0v.241H122.24a3.367,3.367,0,0,0,2.171.724h10.613v.482a.241.241,0,0,0,.241.241h1.93a.724.724,0,0,0,0-1.447Zm0,.965h-1.688v-.241h1.93l-.043-.13a.234.234,0,0,1,.043.13A.241.241,0,0,1,137.195,341.625Z" transform="translate(-48.053 -188.609)" fill="#f5f5f5"/>
    </g>
  </g>
</svg>
